<svg width="721" height="500" viewBox="0 0 721 500" fill="none" xmlns="http://www.w3.org/2000/svg">
<g id="programmer">
<path id="Vector" opacity="0.1" d="M665.72 394.584C664.916 396.835 664.116 399.056 663.317 401.247C662.071 404.651 660.841 407.989 659.627 411.26C659.087 412.71 658.546 414.133 658.02 415.555C652.066 431.376 646.506 445.369 641.784 456.877C637.499 467.304 631.137 476.041 623.364 482.171C615.59 488.302 606.693 491.602 597.602 491.724L492.601 493.21H491.493L482.492 493.336L474.793 493.444L451.182 493.777H450.227L438.207 493.948H437.84L363.754 494.993L297.624 495.893L289.932 496.001L242.157 496.677H242.101L211.117 497.109H210.784L112.811 498.487L83.5023 498.901C77.2477 498.993 71.0195 497.832 65.0362 495.461C54.6241 491.371 45.2667 483.666 37.9707 473.175C25.383 455.139 16.2089 434.096 10.0466 411.26C9.15571 407.965 8.32484 404.627 7.55398 401.247C-13.7786 307.466 12.2276 186.473 59.0332 105.505C60.995 102.119 62.9891 98.8176 65.0155 95.6001L65.0639 95.528C79.4587 72.5487 95.5984 53.3512 112.79 39.7004C143.256 15.4694 177.01 8.64404 210.21 28.9851C238.3 46.2016 264.528 54.2966 289.952 56.4937C292.521 56.7098 295.09 56.8719 297.645 56.9709C355.965 59.3571 410.622 32.0286 474.807 14.3889C477.362 13.6865 479.924 12.9932 482.506 12.3359C528.294 0.485994 579.088 -5.76309 639.492 7.37441C645.767 8.70766 651.96 10.6337 658.02 13.1373C660.684 14.2538 663.25 15.4544 665.72 16.739C694.551 31.9926 710.275 60.1765 716.957 95.492C717.589 98.7696 718.136 102.104 718.597 105.496C730.444 190.444 695.749 310.942 665.72 394.584Z" fill="#6C63FF"/>
<g id="Group" opacity="0.1">
<path id="Vector_2" opacity="0.1" d="M112.79 39.7006V498.586L83.4815 499C77.227 499.092 70.9987 497.932 65.0155 495.56V95.5283H65.0639C79.4587 72.5219 95.5984 53.3244 112.79 39.7006Z" fill="#6C63FF"/>
<path id="Vector_3" opacity="0.1" d="M718.632 105.505H59.0332C60.995 102.12 62.9891 98.8179 65.0155 95.6003V95.5283H716.991C717.624 98.7879 718.171 102.114 718.632 105.505Z" fill="#6C63FF"/>
<path id="Vector_4" opacity="0.1" d="M665.72 16.7483V401.239H663.317C662.071 404.642 660.841 407.98 659.627 411.252C659.086 412.701 658.546 414.124 658.02 415.547V13.1105C660.684 14.227 663.25 15.4396 665.72 16.7483Z" fill="#6C63FF"/>
<path id="Vector_5" opacity="0.1" d="M482.506 12.3091V493.372L474.807 493.48V14.3621C477.362 13.6597 479.924 12.9664 482.506 12.3091Z" fill="#6C63FF"/>
<path id="Vector_6" opacity="0.1" d="M297.645 56.9442V495.984L289.952 496.092V56.4669C292.521 56.683 295.09 56.8091 297.645 56.9442Z" fill="#6C63FF"/>
<path id="Vector_7" opacity="0.1" d="M663.317 401.248C662.071 404.651 660.841 407.989 659.627 411.261H10.0466C9.15571 407.965 8.32485 404.627 7.55399 401.248H663.317Z" fill="#6C63FF"/>
</g>
<path id="Vector_8" d="M159.665 239.365H146.51V291.285H159.665V239.365Z" fill="#3F3D56"/>
<path id="Vector_9" d="M513.705 236.664H500.55V291.591H513.705V236.664Z" fill="#3F3D56"/>
<path id="Vector_10" d="M597.602 480.523V492.229L492.414 493.489L491.293 493.516L451.314 493.994L450.358 494.012L438.207 494.147H437.847L363.775 495.038L242.184 496.506H242.08L211.165 496.884L210.833 496.893L73.4626 498.532V485.025L105.763 459.813L170.57 459.11L171.955 459.101L172.412 459.092L173.797 459.065L204.913 458.732L206.305 458.723L206.748 458.714L208.133 458.705L218.11 458.597L218.373 458.588L242.988 458.318H243.188L435.257 456.211L439.959 456.166H440.43L444.016 456.121L470.085 455.842L471.469 455.815L472.75 455.797H473.415L481.523 455.716L483.129 455.689L485.283 455.671L492.033 455.59L502.745 455.472L504.13 455.454L506.539 455.436H506.989L558.718 454.86L597.602 480.523Z" fill="#65617D"/>
<path id="Vector_11" opacity="0.2" d="M597.602 480.523V492.229L492.414 493.489L491.293 493.516L451.314 493.994L450.358 494.012L438.207 494.147H437.847L363.775 495.038L242.184 496.506H242.08L211.165 496.884L210.833 496.893L73.4626 498.532V485.025L105.763 459.813L170.57 459.11L171.955 459.101L172.412 459.092L173.797 459.065L204.913 458.732L206.305 458.723L206.748 458.714L208.133 458.705L218.11 458.597L218.373 458.588L242.988 458.318H243.188L435.257 456.211L439.959 456.166H440.43L444.016 456.121L470.085 455.842L471.469 455.815L472.75 455.797H473.415L481.523 455.716L483.129 455.689L485.283 455.671L492.033 455.59L502.745 455.472L504.13 455.454L506.539 455.436H506.989L558.718 454.86L597.602 480.523Z" fill="black"/>
<path id="Vector_12" d="M205.017 435.51V457.561C205.017 458.606 204.79 459.629 204.361 460.512C203.932 461.395 203.319 462.102 202.593 462.55C202.053 462.891 201.463 463.075 200.862 463.09L176.698 463.757C176.053 463.777 175.413 463.601 174.829 463.243C174.09 462.803 173.465 462.097 173.027 461.207C172.588 460.318 172.356 459.284 172.357 458.228V435.51H205.017Z" fill="#3F3D56"/>
<path id="Vector_13" opacity="0.1" d="M205.017 435.51V457.561C205.017 458.606 204.79 459.629 204.361 460.512C203.932 461.395 203.319 462.102 202.593 462.55C202.053 462.891 201.463 463.075 200.862 463.09L176.698 463.757C176.053 463.777 175.413 463.601 174.829 463.243C174.09 462.803 173.465 462.097 173.027 461.207C172.588 460.318 172.356 459.284 172.357 458.228V435.51H205.017Z" fill="black"/>
<path id="Vector_14" d="M206.402 435.51V457.561C206.402 458.606 206.174 459.629 205.746 460.512C205.317 461.395 204.704 462.102 203.978 462.55C203.438 462.891 202.847 463.075 202.247 463.09L178.083 463.757C177.437 463.777 176.797 463.601 176.213 463.243C175.475 462.803 174.85 462.097 174.411 461.207C173.973 460.318 173.741 459.284 173.742 458.228V435.51H206.402Z" fill="#3F3D56"/>
<path id="Vector_15" d="M504.129 435.51H471.469V463.874H504.129V435.51Z" fill="#3F3D56"/>
<path id="Vector_16" opacity="0.1" d="M504.129 435.51H471.469V463.874H504.129V435.51Z" fill="black"/>
<path id="Vector_17" d="M502.745 435.51H470.085V463.874H502.745V435.51Z" fill="#3F3D56"/>
<path id="Vector_18" opacity="0.1" d="M159.665 239.357V244.516L146.51 244.075V239.357H159.665Z" fill="black"/>
<path id="Vector_19" d="M246.256 94.0065L230.448 241.68C230.348 242.623 229.984 243.485 229.426 244.101C228.868 244.718 228.154 245.045 227.423 245.02L100.854 240.752L98.451 240.671C98.0327 240.658 97.6211 240.531 97.2432 240.297C96.8653 240.064 96.5295 239.729 96.2577 239.315C95.986 238.901 95.7843 238.418 95.6659 237.896C95.5475 237.374 95.5151 236.825 95.5706 236.286L113.317 81.6975C113.431 80.7399 113.817 79.8729 114.399 79.2678C114.981 78.6626 115.717 78.3633 116.46 78.4288L243.486 89.6124C243.896 89.6432 244.296 89.7843 244.662 90.0266C245.028 90.2688 245.351 90.6071 245.611 91.02C245.872 91.4329 246.063 91.9114 246.174 92.4255C246.285 92.9395 246.313 93.4779 246.256 94.0065V94.0065Z" fill="#65617D"/>
<g id="monitor1">
<path id="Vector_20" d="M121.812 89.2882L108.428 225.553L224.75 230.352L239.055 98.887L121.812 89.2882Z" fill="#6C63FF"/>
</g>
<path id="Vector_21" d="M404.314 87.1812H269.984C267.946 87.1812 266.293 89.3299 266.293 91.9805V238.456C266.293 241.107 267.946 243.255 269.984 243.255H404.314C406.353 243.255 408.005 241.107 408.005 238.456V91.9805C408.005 89.3299 406.353 87.1812 404.314 87.1812Z" fill="#65617D"/>
<g id="monitor2">
<path id="Vector_22" d="M401.766 97.6894H272.982V227.651H401.766V97.6894Z" fill="#6C63FF"/>
</g>
<path id="Vector_23" opacity="0.1" d="M513.705 236.655V240.068L500.55 240.419V236.655H513.705Z" fill="black"/>
<path id="Vector_24" d="M573.064 233.774C573.083 234.147 573.043 234.521 572.948 234.874C572.853 235.226 572.703 235.55 572.509 235.826C572.315 236.102 572.081 236.324 571.819 236.479C571.557 236.634 571.274 236.718 570.987 236.727L441.371 240.212C440.833 240.226 440.31 239.975 439.908 239.509C439.506 239.043 439.255 238.397 439.204 237.7L428.063 87.0731C428.036 86.6994 428.067 86.3223 428.155 85.9647C428.243 85.6071 428.386 85.2765 428.575 84.9927C428.764 84.709 428.995 84.4781 429.255 84.3141C429.514 84.1501 429.797 84.0564 430.085 84.0386L558.718 75.7185L560.102 75.6284C560.653 75.5907 561.193 75.8326 561.609 76.303C562.025 76.7734 562.284 77.4355 562.332 78.1497L573.064 233.774Z" fill="#65617D"/>
<g id="monitor3">
<path id="Vector_25" d="M435.465 92.89L552.943 85.3803L562.865 222.248L446.315 225.85L435.465 92.89Z" fill="#6C63FF"/>
</g>
<path id="Vector_26" opacity="0.1" d="M159.665 275.906H146.51V291.285H159.665V275.906Z" fill="black"/>
<path id="Vector_27" opacity="0.1" d="M206.402 435.501V439.976L173.742 441.11V435.501H206.402Z" fill="black"/>
<path id="Vector_28" d="M264.043 281.263V432.718C264.035 433.643 263.753 434.528 263.257 435.19C262.761 435.852 262.088 436.24 261.377 436.275L128.681 440.867H128.646C127.924 440.856 127.233 440.477 126.722 439.813C126.211 439.148 125.92 438.25 125.911 437.31V281.263C125.92 280.324 126.211 279.426 126.722 278.761C127.233 278.097 127.924 277.718 128.646 277.706H261.308C262.031 277.718 262.721 278.097 263.232 278.761C263.743 279.426 264.034 280.324 264.043 281.263V281.263Z" fill="#65617D"/>
<path id="Vector_29" opacity="0.1" d="M513.705 275.906H500.55V291.591H513.705V275.906Z" fill="black"/>
<path id="Vector_30" opacity="0.1" d="M502.745 435.501V441.272L470.085 440.138V435.501H502.745Z" fill="black"/>
<path id="Vector_31" d="M545.846 281.263V437.31C545.837 438.258 545.541 439.162 545.023 439.828C544.504 440.494 543.805 440.867 543.076 440.867V440.867L410.352 436.275C409.642 436.24 408.969 435.852 408.472 435.19C407.976 434.528 407.695 433.643 407.686 432.718V281.263C407.695 280.324 407.986 279.426 408.497 278.761C409.008 278.097 409.699 277.718 410.421 277.706H543.083C543.811 277.709 544.508 278.083 545.025 278.749C545.542 279.414 545.837 280.317 545.846 281.263V281.263Z" fill="#65617D"/>
<g id="monitor6">
<path id="Vector_32" d="M537.018 287.377H414.119V420.868L537.018 424.47V287.377Z" fill="#D4DFEC"/>
</g>
<path id="Vector_33" d="M404.252 281.263V432.718C404.244 433.643 403.962 434.528 403.466 435.19C402.97 435.852 402.297 436.24 401.586 436.275L268.89 440.867C268.161 440.867 267.462 440.494 266.944 439.828C266.425 439.162 266.129 438.258 266.12 437.31V281.263C266.129 280.324 266.42 279.426 266.931 278.761C267.442 278.097 268.133 277.718 268.855 277.706H401.517C402.24 277.718 402.93 278.097 403.441 278.761C403.952 279.426 404.243 280.324 404.252 281.263V281.263Z" fill="#65617D"/>
<g id="monitor5">
<path id="Vector_34" d="M274.948 287.377H397.848V420.868L274.948 424.47V287.377Z" fill="#D4DFEC"/>
</g>
<g id="monitor4">
<path id="Vector_35" d="M134.739 287.377H257.638V420.868L134.739 424.47V287.377Z" fill="#D4DFEC"/>
<path id="Vector_36" d="M137.779 308.727L208.133 307.826" stroke="#6C63FF" stroke-width="2" stroke-miterlimit="10"/>
<path id="Vector_37" d="M137.779 319.955L208.133 319.064" stroke="#6C63FF" stroke-width="2" stroke-miterlimit="10"/>
<path id="Vector_38" d="M137.779 331.193L208.133 330.292" stroke="#6C63FF" stroke-width="2" stroke-miterlimit="10"/>
</g>
<path id="Vector_39" opacity="0.1" d="M597.602 480.523V492.229L492.414 493.489L491.293 493.516L451.314 493.994L450.358 494.012L438.207 494.147H437.847L363.775 495.038L242.184 496.506H242.08L211.165 496.884L210.833 496.893L73.4626 498.532V485.025L213.679 483.828H214.011L242.392 483.575H242.524L438.526 481.892H438.726L438.844 481.883H439.169L442.486 481.856H443.497L495.073 481.405L498.12 481.387L498.798 481.378L597.602 480.523Z" fill="black"/>
<path id="Vector_40" d="M337.374 291.285C357.003 291.285 372.915 270.592 372.915 245.065C372.915 219.539 357.003 198.845 337.374 198.845C317.746 198.845 301.834 219.539 301.834 245.065C301.834 270.592 317.746 291.285 337.374 291.285Z" fill="#FBBEBE"/>
<path id="Vector_41" d="M372.922 339.612C372.922 339.612 304.029 350.417 310.606 339.612C312.988 335.704 313.646 324.124 313.514 310.933C313.473 306.926 313.362 302.775 313.203 298.642C312.441 278.832 310.606 259.472 310.606 259.472C310.606 259.472 370.844 222.554 363.92 251.819C361.151 263.642 362.058 280.246 364.163 295.832C364.779 300.38 365.492 304.837 366.24 309.069C368.065 319.392 370.295 329.586 372.922 339.612V339.612Z" fill="#FBBEBE"/>
<path id="Vector_42" opacity="0.1" d="M372.922 339.612C372.922 339.612 304.029 350.417 310.606 339.612C312.988 335.704 313.646 324.124 313.514 310.933C324.018 305.098 337.381 309.447 337.381 309.447C351.45 305.8 360.472 306.512 366.24 309.069C368.065 319.392 370.295 329.586 372.922 339.612V339.612Z" fill="black"/>
<path id="Vector_43" opacity="0.1" d="M253.484 391.388C253.484 391.388 292.95 417.951 307.144 414.799L253.484 391.388Z" fill="black"/>
<path id="Vector_44" opacity="0.1" d="M333.801 380.582C333.801 380.582 372.229 396.79 385.038 399.042C397.848 401.293 333.801 380.582 333.801 380.582Z" fill="black"/>
<path id="Vector_45" d="M242.157 497.523V496.767L363.754 495.047L437.84 494.147H438.048L437.972 495.479L438.075 494.147H438.207V493.994L439.156 481.883L439.516 477.299L439.626 475.868L439.723 474.67L444.002 456.112L448.281 437.581L451.882 421.976L457.379 398.132C457.379 398.132 454.263 388.677 452.533 385.976C450.802 383.275 449.071 364.816 449.071 364.816C449.071 364.816 434.295 346.51 427.835 344.403C425.128 343.502 419.782 342.304 414.105 340.801C411.979 340.242 409.798 339.648 407.7 339C406.516 338.649 405.353 338.279 404.238 337.91C402.069 337.206 399.931 336.346 397.834 335.335C396.734 334.816 395.688 334.123 394.718 333.273C389.629 328.42 376.875 327.87 376.383 327.87C376.382 327.849 376.382 327.828 376.383 327.807V327.726C376.401 327.348 376.401 326.97 376.383 326.592C376.383 326.232 376.383 325.808 376.321 325.331C376.321 325.187 376.321 325.034 376.273 324.881C376.238 324.557 376.196 324.215 376.134 323.854C376.113 323.693 376.085 323.534 376.051 323.377C375.85 322.292 375.56 321.238 375.186 320.235C375.137 320.09 375.075 319.937 375.019 319.793C374.68 318.962 374.286 318.169 373.842 317.425C373.752 317.272 373.655 317.11 373.552 316.957C372.984 316.087 372.354 315.291 371.668 314.58C371.481 314.391 371.287 314.193 371.087 314.012C370.975 313.894 370.857 313.786 370.734 313.688L370.117 313.166L369.543 312.734C369.037 312.374 368.504 312.022 367.922 311.689C367.742 311.581 367.549 311.482 367.355 311.383C367.161 311.284 366.856 311.131 366.6 311.005H366.558L366.039 310.735C365.644 310.564 365.243 310.411 364.821 310.258L364.177 310.041L363.484 309.834L362.792 309.645C362.099 309.465 361.359 309.303 360.583 309.177L359.794 309.051L358.984 308.943L358.146 308.853L356.955 308.763L355.57 308.7C349.463 308.699 343.373 309.541 337.402 311.212C333.254 310.012 329.005 309.503 324.759 309.699H324.156L323.464 309.753H323.021L322.128 309.861C321.83 309.861 321.525 309.942 321.228 309.996C320.93 310.051 320.618 310.096 320.321 310.159L319.864 310.258C319.414 310.357 318.957 310.465 318.479 310.591C318.326 310.627 318.174 310.672 318.022 310.726C317.419 310.897 316.817 311.104 316.222 311.338C315.924 311.446 315.626 311.572 315.328 311.707C315.176 311.761 315.031 311.833 314.885 311.905L314.442 312.113L314.006 312.338L313.487 312.608C313.224 312.752 312.967 312.905 312.711 313.067C312.566 313.148 312.42 313.238 312.282 313.337C312.143 313.436 311.998 313.517 311.867 313.616C310.301 314.668 308.854 315.995 307.567 317.56L307.214 318.001L306.867 318.461C306.75 318.614 306.639 318.776 306.528 318.938C306.077 319.579 305.656 320.256 305.268 320.964C305.157 321.153 305.053 321.342 304.95 321.54C304.51 322.383 304.112 323.261 303.759 324.169C303.669 324.386 303.586 324.611 303.502 324.827C302.937 326.348 302.474 327.93 302.118 329.554C301.988 330.154 301.871 330.755 301.765 331.355C301.765 331.355 287.107 339.765 274.948 345.852C271.715 347.473 268.668 348.941 266.12 350.048C265.379 350.372 264.687 350.67 264.043 350.949C262.646 351.606 261.193 352.041 259.716 352.245C259.019 352.26 258.325 352.345 257.638 352.498C252.051 353.677 242.475 358.801 241.43 363.942C241.345 364.353 241.321 364.781 241.36 365.203C241.36 365.203 241.36 365.266 241.36 365.302C242.053 371.605 237.206 370.705 237.206 370.705C237.206 370.705 235.475 387.363 233.052 391.865C231.3 395.107 230.102 402.337 229.95 407.794C229.863 409.494 229.965 411.202 230.254 412.863C230.254 412.908 230.254 412.953 230.254 412.989C230.531 414.196 229.867 417.492 228.738 421.715C227.513 426.352 225.726 432.115 224.009 437.554C221.42 445.766 218.982 453.221 218.83 454.86C218.768 455.59 218.588 456.895 218.338 458.579C217.328 465.44 215.084 478.506 213.976 483.792C213.152 487.735 211.955 493.138 211.131 496.848C211.131 496.956 211.082 497.064 211.061 497.163L242.101 496.767V497.523H242.198H242.157Z" fill="#6C63FF"/>
<path id="Vector_46" opacity="0.1" d="M376.425 328.429C356.346 333.237 318.541 332.201 302.201 331.472C308.19 303.558 337.395 313.049 337.395 313.049C373.545 303.666 376.314 323.134 376.425 328.429Z" fill="black"/>
<path id="Vector_47" d="M376.425 326.628C356.346 331.436 318.541 330.401 302.201 329.671C308.19 301.757 337.395 311.248 337.395 311.248C373.545 301.865 376.314 321.333 376.425 326.628Z" fill="#6C63FF"/>
<path id="Vector_48" d="M483.012 449.692C483.012 449.692 506.664 444.964 507.128 458.471C507.591 471.978 495.066 481.414 495.066 481.414L483.012 449.692Z" fill="#FBBEBE"/>
<path id="Vector_49" opacity="0.1" d="M364.163 295.832C363.145 296.424 362.106 296.947 361.047 297.399C353.583 300.749 346.057 304.126 338.198 305.35C330.339 306.575 322.093 305.494 315.238 300.398C314.519 299.869 313.825 299.283 313.161 298.642C312.4 278.832 310.565 259.472 310.565 259.472C310.565 259.472 370.803 222.554 363.879 251.819C361.123 263.642 362.058 280.246 364.163 295.832Z" fill="black"/>
<path id="Vector_50" d="M327.625 172.823C326.637 173.162 325.602 173.196 324.601 172.923C323.601 172.649 322.664 172.075 321.865 171.247L323.305 173.849C322.456 173.976 321.596 173.861 320.785 173.511C319.974 173.161 319.232 172.585 318.61 171.823C318.48 174.153 318.554 176.494 318.832 178.802C316.449 178.951 314.103 177.994 312.213 176.1C312.176 176.913 312.331 177.72 312.658 178.414C312.985 179.108 313.467 179.655 314.041 179.981C311.647 179.609 309.231 180.383 307.243 182.157C305.256 183.932 303.833 186.586 303.239 189.625L306.854 190.057C304.013 190.846 301.464 192.869 299.625 195.793C298.517 197.594 297.673 199.899 298.157 202.096C298.642 204.293 300.982 205.698 302.256 204.131C300.444 206.944 299.127 210.238 298.397 213.783C297.668 217.328 297.543 221.038 298.033 224.652C298.361 226.192 298.469 227.798 298.351 229.389C298.123 230.874 297.402 232.162 297.042 233.612C296.35 236.241 297.008 239.095 297.624 241.716L300.871 255.601C302.048 260.616 303.219 265.64 304.756 270.494C305.844 273.562 306.769 276.724 307.525 279.958C308.398 284.316 308.432 289.088 310.295 292.897C311.571 295.294 313.278 297.25 315.266 298.597C322.114 303.693 330.388 304.774 338.226 303.549C346.064 302.325 353.583 298.948 361.04 295.598C362.697 294.949 364.287 294.042 365.776 292.897C370.934 288.503 372.084 279.516 373.046 271.601C374.119 262.777 375.553 253.971 378.094 245.669C379.603 240.725 381.556 235.71 381.223 230.415C380.801 223.383 376.522 217.683 375.463 210.767C375.108 208.456 375.124 206.074 375.511 203.771C375.84 202.399 376.024 200.975 376.058 199.539C375.94 196.639 374.112 194.406 372.395 192.542C368.67 188.496 364.825 184.672 360.86 181.071C360.659 179.27 362.543 178.495 363.394 177.073C364.599 175.065 363.353 171.877 361.525 170.941C359.697 170.004 357.647 170.616 355.743 171.238C355.867 169.97 355.674 168.685 355.191 167.572C354.708 166.459 353.962 165.579 353.063 165.062C352.165 164.545 351.162 164.419 350.204 164.703C349.246 164.986 348.384 165.665 347.746 166.636C347.241 165.129 346.433 163.825 345.407 162.862C344.382 161.899 343.176 161.312 341.916 161.162C337.326 160.694 337.236 165.259 334.3 167.771C331.364 170.283 328.941 166.97 326.684 164.556C326.269 165.921 326.138 167.403 326.303 168.854C326.468 170.305 326.924 171.673 327.625 172.823V172.823Z" fill="#3F3D56"/>
<path id="Vector_51" d="M500.55 476.705C500.55 476.705 499.934 478.614 498.798 481.378C497.08 485.631 494.989 489.611 492.567 493.237L492.38 493.498H491.258L451.279 493.975H450.324L450.206 493.795L442.451 481.828L439.529 477.317L439.412 477.128L439.162 476.75L439.024 476.534L438.844 476.255L433.159 467.484L435.237 456.229L438.775 437.265L438.865 436.806L439.557 433.204L440.049 430.503L441.697 421.697L447.347 391.397L457.386 398.15L467.973 422.462L473.657 435.519H476.773C477.362 435.519 478.712 436.995 480.069 438.697C480.554 439.3 481.038 439.94 481.454 440.498C482.686 442.155 483.662 443.578 483.662 443.578C483.662 443.578 488.71 443.722 490.067 448.89C490.137 449.14 490.195 449.396 490.24 449.656C490.691 451.687 491.277 453.664 491.992 455.563C492.885 458.093 494.007 460.965 495.142 463.838C497.254 469.105 499.4 474.121 500.19 475.94L500.287 476.165L500.55 476.705Z" fill="#6C63FF"/>
<path id="Vector_52" opacity="0.1" d="M441.074 436.05L441.004 437.337V437.428L440.887 439.499L439.966 456.166L438.851 476.246L438.532 481.901L437.84 494.003V494.156L363.754 495.056L242.177 496.767V497.523H242.08V496.767V496.515L242.392 483.584L242.988 458.318L243.5 436.896L243.548 434.762C243.579 433.474 243.811 432.208 244.23 431.04C244.649 429.872 245.247 428.828 245.987 427.971C246.727 427.114 247.594 426.462 248.534 426.055C249.474 425.649 250.468 425.495 251.455 425.605C254.724 425.965 258.968 426.406 264.043 426.874L266.12 427.072C295.429 429.72 349.595 433.141 404.252 428.873C405.402 428.792 406.558 428.702 407.714 428.594C416.189 427.901 424.657 427.009 433.042 425.893C434.102 425.748 435.173 425.908 436.181 426.36C437.188 426.813 438.107 427.547 438.873 428.511C439.638 429.475 440.232 430.645 440.613 431.94C440.993 433.235 441.15 434.622 441.074 436.005V436.05Z" fill="black"/>
<path id="Vector_53" d="M242.157 497.523V496.767L363.754 495.047L437.84 494.147H438.048V493.994L438.74 481.892L439.038 476.489L440.173 456.13L441.067 440.012V439.616C441.108 438.873 441.082 438.126 440.99 437.391C440.994 437.362 440.994 437.331 440.99 437.301C440.8 435.782 440.325 434.347 439.606 433.123C438.843 431.852 437.844 430.854 436.703 430.224C435.562 429.594 434.316 429.352 433.083 429.522C424.698 430.638 416.231 431.53 407.756 432.223C406.599 432.331 405.443 432.421 404.294 432.502C349.636 436.725 295.471 433.303 266.162 430.701L264.085 430.503C259.009 430.035 254.765 429.603 251.497 429.233C249.699 429.036 247.909 429.712 246.472 431.13C245.034 432.549 244.052 434.609 243.715 436.914C243.645 437.402 243.603 437.895 243.59 438.391L243.119 458.345L242.475 483.62L242.17 496.551V496.803V497.559L242.157 497.523Z" fill="#3F3D56"/>
<path id="Vector_54" opacity="0.1" d="M441.281 442.362L440.43 456.166L439.163 476.741L438.844 481.892L438.152 493.426L438.11 494.003V494.156L438.006 495.488L438.082 494.156H437.882L363.796 495.056L242.177 496.767V496.515L242.517 483.584L243.209 458.318L243.652 441.525C243.674 440.569 243.879 439.636 244.249 438.811C244.619 437.985 245.142 437.293 245.771 436.797C246.555 436.172 247.472 435.888 248.388 435.987C249.842 436.14 251.629 436.32 253.713 436.518C257.098 436.842 261.274 437.22 266.134 437.617C275.135 438.355 286.428 439.147 299.369 439.796C335.373 441.597 383.979 442.2 430.148 436.941C432.225 436.707 434.371 436.446 436.469 436.185C437.3 436.077 438.136 436.284 438.879 436.779C439.089 436.915 439.288 437.078 439.474 437.265C440.077 437.833 440.554 438.597 440.859 439.481C440.93 439.656 440.987 439.84 441.032 440.03C441.24 440.776 441.325 441.57 441.281 442.362V442.362Z" fill="black"/>
<path id="Vector_55" opacity="0.1" d="M206.402 454.689V457.561C206.402 458.606 206.174 459.629 205.746 460.512C205.317 461.395 204.704 462.102 203.978 462.55L176.213 463.243C175.475 462.803 174.85 462.097 174.411 461.207C173.973 460.318 173.741 459.284 173.742 458.228V455.526L206.402 454.689Z" fill="black"/>
<path id="Vector_56" d="M206.748 464.243L170.57 465.143V457.336L206.748 456.436V464.243Z" fill="#3F3D56"/>
<path id="Vector_57" opacity="0.1" d="M206.748 464.243L170.57 465.143V457.336L206.748 456.436V464.243Z" fill="black"/>
<path id="Vector_58" d="M208.133 464.243L171.955 465.143V457.336L208.133 456.436V464.243Z" fill="#3F3D56"/>
<g id="Group_2" opacity="0.1">
<path id="Vector_59" opacity="0.1" d="M327.909 169.869C327.233 168.726 326.783 167.384 326.601 165.961C326.434 167.352 326.534 168.775 326.891 170.103C327.235 170.062 327.575 169.984 327.909 169.869Z" fill="black"/>
<path id="Vector_60" opacity="0.1" d="M319.116 175.848C318.985 174.744 318.9 173.632 318.86 172.516C318.86 173.624 318.86 174.74 318.86 175.857L319.116 175.848Z" fill="black"/>
<path id="Vector_61" opacity="0.1" d="M375.546 205.896C375.584 205.094 375.667 204.296 375.795 203.51C376.122 202.14 376.309 200.72 376.349 199.287C376.333 198.965 376.296 198.646 376.238 198.332C376.12 199.161 375.933 199.989 375.795 200.808C375.518 202.479 375.434 204.193 375.546 205.896Z" fill="black"/>
<path id="Vector_62" opacity="0.1" d="M361.144 178.072L361.899 178.783C362.535 178.185 363.13 177.516 363.678 176.785C363.939 176.316 364.1 175.767 364.146 175.191C364.192 174.616 364.122 174.035 363.941 173.507C363.872 173.712 363.784 173.906 363.678 174.083C362.826 175.506 360.943 176.289 361.144 178.072Z" fill="black"/>
<path id="Vector_63" opacity="0.1" d="M304.25 186.734C303.998 187.391 303.796 188.079 303.648 188.787C304.731 188.001 305.898 187.428 307.11 187.086L304.25 186.734Z" fill="black"/>
<path id="Vector_64" opacity="0.1" d="M313.798 176.938C313.343 176.612 312.908 176.241 312.497 175.83C312.479 176.186 312.5 176.544 312.559 176.893C312.972 176.867 313.387 176.882 313.798 176.938V176.938Z" fill="black"/>
<path id="Vector_65" opacity="0.1" d="M381.493 229.992C381.209 234.359 379.645 238.564 378.378 242.706C375.836 251.008 374.403 259.815 373.33 268.648C372.368 276.563 371.253 285.549 366.06 289.935C364.576 291.087 362.988 291.995 361.331 292.636C353.867 295.995 346.341 299.362 338.482 300.587C330.623 301.811 322.377 300.74 315.522 295.643C313.535 294.295 311.829 292.339 310.551 289.944C308.702 286.135 308.668 281.362 307.781 277.004C307.026 273.768 306.1 270.603 305.012 267.531C303.482 262.687 302.305 257.627 301.134 252.647C300.05 248.019 298.967 243.387 297.887 238.753C297.531 237.359 297.267 235.928 297.098 234.476C296.828 236.781 297.354 239.194 297.887 241.455C298.967 246.095 300.05 250.726 301.134 255.348C302.305 260.364 303.482 265.388 305.012 270.233C306.1 273.304 307.026 276.469 307.781 279.705C308.654 284.064 308.688 288.836 310.551 292.645C311.829 295.04 313.535 296.996 315.522 298.345C322.377 303.441 330.644 304.513 338.482 303.288C346.32 302.064 353.839 298.696 361.331 295.337C362.988 294.696 364.576 293.789 366.06 292.636C371.218 288.251 372.368 279.264 373.33 271.349C374.403 262.516 375.836 253.71 378.378 245.407C379.887 240.473 381.839 235.458 381.507 230.154C381.507 230.1 381.493 230.046 381.493 229.992Z" fill="black"/>
<path id="Vector_66" opacity="0.1" d="M298.621 226.507C298.621 226.507 298.621 226.444 298.621 226.408C298.746 224.82 298.638 223.216 298.303 221.681C298.164 220.693 298.074 219.694 298.033 218.691C297.953 220.595 298.043 222.505 298.303 224.382C298.413 225.084 298.538 225.796 298.621 226.507Z" fill="black"/>
<path id="Vector_67" opacity="0.1" d="M300.733 204.482C301.265 203.319 301.87 202.214 302.54 201.178C301.273 202.753 298.933 201.349 298.441 199.161C298.26 200.046 298.26 200.977 298.441 201.862C298.612 202.523 298.913 203.113 299.316 203.573C299.718 204.033 300.207 204.347 300.733 204.482V204.482Z" fill="black"/>
</g>
<path id="Vector_68" opacity="0.1" d="M473.664 435.51C473.664 435.51 475.859 445.865 473.664 454.869C471.469 463.874 473.664 435.51 473.664 435.51Z" fill="black"/>
<path id="Vector_69" opacity="0.1" d="M483.012 446.072C483.012 446.072 483.932 459.218 481.855 461.55C479.778 463.883 483.012 446.072 483.012 446.072Z" fill="black"/>
</g>
</svg>
