<svg width="697" height="478" viewBox="0 0 697 478" fill="none" xmlns="http://www.w3.org/2000/svg">
<g id="vr">
<path id="fly1" d="M155.223 440.222C156.442 439.015 157.331 437.385 157.771 435.55C158.104 433.69 157.452 431.467 155.988 430.788C154.352 430.028 152.602 431.402 151.278 432.801C149.954 434.2 148.431 435.784 146.695 435.485C147.587 434.502 148.255 433.255 148.632 431.865C149.01 430.475 149.085 428.99 148.85 427.554C148.775 426.959 148.568 426.4 148.251 425.937C147.34 424.757 145.697 425.266 144.606 426.196C141.147 429.155 140.182 434.862 140.162 440.004C139.816 438.153 140.109 436.221 140.095 434.345C140.082 432.469 139.656 430.303 138.339 429.317C137.522 428.783 136.605 428.518 135.678 428.549C134.122 428.476 132.392 428.67 131.328 430.052C129.997 431.766 130.35 434.652 131.501 436.52C132.651 438.387 134.394 439.592 136.004 440.902C137.295 441.834 138.395 443.108 139.224 444.628C139.322 444.839 139.402 445.061 139.463 445.291H149.196C151.384 443.94 153.412 442.235 155.223 440.222V440.222Z" fill="#6C63FF"/>
<path id="fly2" d="M198.464 465.939C199.683 464.731 200.572 463.102 201.012 461.266C201.344 459.407 200.692 457.184 199.229 456.505C197.592 455.745 195.843 457.119 194.519 458.518C193.195 459.916 191.672 461.501 189.935 461.202C190.828 460.219 191.495 458.971 191.873 457.581C192.251 456.191 192.326 454.706 192.091 453.271C192.016 452.676 191.809 452.117 191.492 451.654C190.581 450.474 188.937 450.983 187.847 451.913C184.387 454.872 183.423 460.579 183.403 465.721C183.057 463.869 183.349 461.937 183.336 460.062C183.323 458.186 182.897 456.019 181.58 455.033C180.763 454.5 179.846 454.235 178.919 454.265C177.362 454.192 175.633 454.386 174.568 455.769C173.238 457.483 173.59 460.369 174.741 462.236C175.892 464.104 177.635 465.309 179.245 466.618C180.535 467.55 181.636 468.824 182.465 470.345C182.562 470.556 182.642 470.778 182.704 471.008H192.437C194.625 469.657 196.652 467.952 198.464 465.939Z" fill="#6C63FF"/>
<g id="human">
<path id="Vector" opacity="0.1" d="M201.249 253.422C184.957 262.574 169.936 275.145 152.952 282.187C132.283 290.756 109.964 290.667 88.1246 290.473L0 289.721C17.8484 328.68 49.3809 358.011 84.9847 368.771C98.9547 372.999 113.876 374.657 126.196 383.735C141.55 395.054 150.651 416.332 166.257 427.108C183.46 438.976 204.841 435.775 224.014 441.66C249.007 449.284 269.915 472.212 295.407 476.723C320.061 481.08 344.096 467.547 367.992 459.002C453.342 428.475 545.552 461.079 633.65 445.986C637.036 445.404 640.641 444.619 643.089 441.725C646.236 438.014 646.495 432.024 645.87 426.712C642.73 400.244 623.139 380.793 602.596 371.196C558.83 350.759 509.662 363.597 463.168 356.24C431.236 351.179 400.861 336.611 370.899 322.164C339.526 307.038 307.661 292.195 277.931 272.623C247.709 252.695 237.91 232.855 201.249 253.422Z" fill="#6C63FF"/>
<path id="Vector_2" d="M477.125 393.93C477.125 393.93 478.455 418.183 475.794 422.225C475.794 422.225 534.336 435.161 541.653 431.118C548.971 427.076 545.645 420.609 541.653 418.183C537.662 415.758 517.705 406.865 515.044 389.888C515.044 389.888 523.692 385.037 495.752 391.504C467.811 397.972 477.125 393.93 477.125 393.93Z" fill="#DC9BA3"/>
<path id="Vector_3" opacity="0.05" d="M477.125 393.93C477.125 393.93 478.455 418.183 475.794 422.225C475.794 422.225 534.336 435.161 541.653 431.118C548.971 427.076 545.645 420.609 541.653 418.183C537.662 415.758 517.705 406.865 515.044 389.888C515.044 389.888 523.692 385.037 495.752 391.504C467.811 397.972 477.125 393.93 477.125 393.93Z" fill="black"/>
<path id="Vector_4" d="M248.82 56.194L248.568 56.3395C236.491 63.2616 225.987 73.6597 217.966 86.632C213.43 93.908 207.855 100.844 202.553 101.992C190.778 104.515 104.197 213.946 124.979 315.794C145.761 417.642 267.001 421.845 267.001 421.845C267.001 421.845 292.786 427.157 307.581 437.78C311.036 440.262 314.897 441.791 318.892 442.258C322.887 442.724 326.918 442.117 330.698 440.48C348.314 432.864 377.265 421.821 390.317 425.217C409.709 430.269 575.92 346.094 575.92 346.094C575.92 346.094 506.655 265.25 404.84 266.972C404.84 266.972 244.15 130.611 249.692 74.2143L248.82 56.194Z" fill="#6C63FF"/>
<path id="Vector_5" opacity="0.1" d="M248.82 56.194L248.568 56.3395C236.491 63.2616 225.987 73.6597 217.966 86.632C213.43 93.908 207.855 100.844 202.553 101.992C190.778 104.515 104.197 213.946 124.979 315.794C145.761 417.642 267.001 421.845 267.001 421.845C267.001 421.845 292.786 427.157 307.581 437.78C311.036 440.262 314.897 441.791 318.892 442.258C322.887 442.724 326.918 442.117 330.698 440.48C348.314 432.864 377.265 421.821 390.317 425.217C409.709 430.269 575.92 346.094 575.92 346.094C575.92 346.094 506.655 265.25 404.84 266.972C404.84 266.972 244.15 130.611 249.692 74.2143L248.82 56.194Z" fill="black"/>
<path id="Vector_6" d="M248.947 56L232.316 75.4027C232.316 75.4027 219.676 105.315 208.367 107.74C197.058 110.166 113.903 215.264 133.86 313.085C153.817 410.907 270.235 414.949 270.235 414.949C270.235 414.949 294.463 419.938 308.719 429.922C312.175 432.381 316.03 433.9 320.016 434.373C324.003 434.846 328.026 434.263 331.809 432.662C348.766 425.386 376.234 414.949 388.641 418.183C407.268 423.034 566.926 342.189 566.926 342.189C566.926 342.189 500.402 264.579 402.611 266.196C402.611 266.196 248.275 135.228 253.597 81.0618L248.947 56Z" fill="#6C63FF"/>
<path id="Vector_7" opacity="0.1" d="M360.231 366.29C380.718 341.393 367.092 284.467 329.796 239.142C292.5 193.818 245.658 177.259 225.17 202.156C204.683 227.054 218.309 283.98 255.605 329.304C292.901 374.628 339.743 391.188 360.231 366.29Z" fill="black"/>
<path id="Vector_8" d="M248.947 158.672C248.947 158.672 256.264 173.224 251.608 201.52C246.951 229.816 263.582 229.816 263.582 229.816H296.844L308.153 194.244L292.187 195.861C292.187 195.861 281.544 192.627 286.2 162.715L248.947 158.672Z" fill="#FFD2D9"/>
<path id="Vector_9" d="M348.733 124.718C343.644 144.403 337.264 168.374 333.858 181.163L331.437 190.202L309.484 162.715C309.484 162.715 310.448 159.99 311.892 156.174C315.105 147.718 320.7 133.918 323.454 132.802C323.454 132.802 292.853 130.377 283.539 139.27C274.226 148.163 276.887 115.016 276.887 115.016C276.887 115.016 294.848 113.4 301.501 108.549C308.153 103.698 344.076 98.8476 344.076 98.8476C344.076 98.8476 356.051 96.4222 348.733 124.718Z" fill="#FFD2D9"/>
<path id="Vector_10" opacity="0.1" d="M228.324 368.868C228.324 368.868 284.87 337.339 304.827 342.189Z" fill="black"/>
<path id="Vector_11" opacity="0.1" d="M170.448 294.491C170.448 294.491 238.968 291.257 276.222 320.361Z" fill="black"/>
<path id="Vector_12" opacity="0.1" d="M204.376 327.637C204.376 327.637 258.26 311.468 286.866 317.128Z" fill="black"/>
<path id="Vector_13" d="M548.306 362.4L543.649 403.631L531.675 402.014C531.675 402.014 530.949 401.206 529.719 399.848C526.492 396.396 519.78 389.629 513.354 385.942C511.18 384.594 508.822 383.739 506.395 383.42L519.7 359.167C522.938 360.64 526.257 361.834 529.632 362.74C533.139 363.739 536.728 364.254 540.329 364.276C543.067 364.337 545.785 363.698 548.306 362.4Z" fill="#FFD2D9"/>
<path id="Vector_14" d="M515.044 391.504C509.056 397.972 481.781 384.228 477.125 405.248L472.841 385.312L459.649 323.959L457.833 315.511L446.843 314.937L320.726 308.396L313.568 308.041L309.803 307.847L314.799 304.839L348.061 284.806C348.061 284.806 360.036 283.787 376.567 281.031C401.62 276.859 437.104 268.702 457.141 254.093C490.403 229.84 503.043 311.493 503.043 311.493C503.043 311.493 508.098 332.213 511.957 352.626C513.793 362.328 515.356 372.029 515.948 379.354C516.514 385.571 516.341 390.106 515.044 391.504Z" fill="#E9E9EF"/>
<path id="Vector_15" opacity="0.05" d="M515.044 391.504C509.056 397.972 481.781 384.228 477.125 405.248L472.841 385.312L459.649 323.959L457.833 315.511L446.524 314.702L324.651 305.559L317.127 304.993L314.812 304.823L311.812 304.597L348.068 284.79C348.068 284.79 360.042 283.771 376.573 281.014C401.626 276.843 437.11 268.686 457.148 254.077C490.41 229.824 503.049 311.477 503.049 311.477C503.049 311.477 508.105 332.197 511.963 352.61C513.8 362.312 515.363 372.013 515.955 379.337C516.514 385.571 516.341 390.106 515.044 391.504Z" fill="black"/>
<path id="Vector_16" opacity="0.1" d="M529.632 362.74L517.991 379.329L513.334 385.942C511.16 384.594 508.802 383.739 506.375 383.42L519.68 359.167C522.924 360.641 526.25 361.835 529.632 362.74V362.74Z" fill="black"/>
<path id="Vector_17" d="M529.014 360.784L515.995 379.329L509.722 388.271V390.696C502.045 392.847 478.116 386.719 472.841 385.312C472.175 385.142 471.803 385.037 471.803 385.037C456.502 385.845 399.957 345.423 399.957 345.423C399.957 345.423 338.089 358.358 308.153 355.124C291.436 353.314 286.752 345.965 285.874 339.821C285.488 336.784 285.832 333.676 286.866 330.871L313.568 308.041L317.114 305.009L322.775 300.158C322.775 300.158 332.614 297.45 345.114 294.095C364.639 288.864 390.663 282.065 395.932 281.572C404.58 280.764 426.533 289.657 439.173 307.442C441.349 310.235 443.807 312.68 446.49 314.718L446.836 314.993C450.389 317.855 454.766 320.903 459.642 324.016C475.748 334.323 497.215 345.391 511.977 352.659C522.062 357.582 529.014 360.784 529.014 360.784Z" fill="#E9E9EF"/>
<path id="Vector_18" opacity="0.1" d="M548.306 362.4L543.649 403.631L531.675 402.014C531.675 402.014 530.949 401.206 529.719 399.848C532.38 399.92 536.744 398.991 537.662 392.313C537.662 392.313 533.052 372.708 540.323 364.276C543.062 364.339 545.782 363.7 548.306 362.4V362.4Z" fill="black"/>
<path id="Vector_19" d="M538.992 392.313C538.992 392.313 532.34 364.017 547.64 360.784L572.92 372.91L602.19 375.336C602.19 375.336 609.834 390.502 597.58 407.479C594.223 412.083 590.136 415.816 585.563 418.455C580.991 421.095 576.028 422.586 570.97 422.84L538.986 424.659L529.007 399.597C529.007 399.597 537.662 402.014 538.992 392.313Z" fill="#DC9BA3"/>
<path id="Vector_20" opacity="0.1" d="M376.573 281.014C373.247 282.203 359.357 287.239 345.147 294.079C338.126 297.364 331.287 301.196 324.671 305.551C323.294 306.488 322.01 307.434 320.746 308.388C317.021 311.258 314.021 314.201 312.165 317.119C303.956 330.055 291.895 336.975 285.894 339.813C285.508 336.776 285.852 333.668 286.886 330.863L313.568 308.041L309.803 307.847L314.799 304.839L311.799 304.613L348.055 284.806C348.055 284.806 360.049 283.787 376.573 281.014Z" fill="black"/>
<path id="Vector_21" opacity="0.1" d="M333.858 181.163L331.437 190.202L309.484 162.715C309.484 162.715 310.448 159.99 311.892 156.174C314.666 163.329 327.918 175.803 333.858 181.163Z" fill="black"/>
<path id="Vector_22" d="M254.655 194.592C253.87 191.851 253.295 189.029 252.938 186.16L224.333 198.286C224.333 198.286 204.708 216.476 206.704 256.09C206.704 256.09 230.985 245.176 241.629 258.111L241.849 260.391C244.1 282.993 252.329 304.095 265.298 320.523C270.62 327.274 275.576 334.889 278.217 342.189C278.217 342.189 296.844 335.722 308.153 317.936C319.462 300.15 373.347 281.556 373.347 281.556C373.347 281.556 344.742 282.364 340.75 270.238C336.759 258.111 323.454 232.241 328.111 212.03C332.767 191.819 335.428 185.351 335.428 185.351C335.428 185.351 308.153 161.906 310.149 154.63L292.853 178.884L284.87 182.117C285.497 183.994 285.815 186.002 285.808 188.027C286.234 210.009 260.715 215.296 254.655 194.592Z" fill="#CEDAD5"/>
<path id="Vector_23" d="M95.6684 295.914C95.6684 295.914 101.243 304.807 93.0939 318.146C84.9447 331.486 78.2258 342.812 80.9466 351.155C80.9466 351.155 93.2403 326.312 103.246 325.964C113.251 325.616 106.678 310.878 95.6684 295.914Z" fill="#6C63FF"/>
<path id="Vector_24" opacity="0.1" d="M95.6684 295.914C96.1542 296.771 96.5373 297.707 96.806 298.695C106.572 312.633 111.767 325.64 102.387 325.972C93.6461 326.279 83.1619 345.27 80.6473 350.072C80.7303 350.442 80.8302 350.806 80.9466 351.163C80.9466 351.163 93.2403 326.32 103.246 325.972C113.251 325.624 106.678 310.878 95.6684 295.914Z" fill="black"/>
<path id="Vector_25" d="M106.013 307.232C106.013 310.353 105.727 312.891 105.348 312.891C104.969 312.891 104.682 310.361 104.682 307.232C104.682 304.104 105.042 305.615 105.394 305.615C105.747 305.615 106.013 304.112 106.013 307.232Z" fill="#FFD037"/>
<path id="Vector_26" d="M109.585 310.959C107.33 312.455 105.368 313.384 105.201 312.972C105.035 312.56 106.718 311.072 108.973 309.585C111.228 308.097 110.337 309.181 110.51 309.585C110.683 309.989 111.84 309.464 109.585 310.959Z" fill="#FFD037"/>
<path id="Vector_27" d="M66.2182 295.914C66.2182 295.914 60.6435 304.807 68.7927 318.146C76.9419 331.486 83.6608 342.812 80.94 351.155C80.94 351.155 68.6463 326.312 58.6411 325.964C48.6358 325.616 55.2151 310.878 66.2182 295.914Z" fill="#6C63FF"/>
<path id="Vector_28" opacity="0.1" d="M66.2182 295.914C65.7324 296.771 65.3494 297.707 65.0806 298.695C55.3149 312.633 50.1193 325.64 59.4992 325.972C68.2405 326.279 78.7247 345.27 81.2393 350.072C81.1564 350.442 81.0564 350.806 80.94 351.163C80.94 351.163 68.6463 326.32 58.6411 325.972C48.6358 325.624 55.2151 310.878 66.2182 295.914Z" fill="black"/>
<path id="Vector_29" d="M55.8537 307.232C55.8537 310.353 56.1398 312.891 56.5189 312.891C56.8981 312.891 57.1842 310.361 57.1842 307.232C57.1842 304.104 56.8249 305.615 56.4724 305.615C56.1198 305.615 55.8537 304.112 55.8537 307.232Z" fill="#FFD037"/>
<path id="Vector_30" d="M52.3013 310.959C54.5565 312.455 56.519 313.384 56.6853 312.972C56.8516 312.56 55.1685 311.072 52.9133 309.585C50.6582 308.097 51.5496 309.181 51.3766 309.585C51.2037 309.989 50.0462 309.464 52.3013 310.959Z" fill="#FFD037"/>
<path id="Vector_31" d="M57.6299 350.023C57.6299 350.023 73.2165 349.441 77.9131 345.375C82.6097 341.308 101.862 336.482 103.053 342.949C104.243 349.417 126.476 375.376 108.88 375.546C91.2845 375.716 67.9944 372.215 63.3044 368.747C58.6145 365.279 57.6299 350.023 57.6299 350.023Z" fill="#A8A8A8"/>
<path id="Vector_32" opacity="0.2" d="M109.199 373.306C91.6038 373.476 68.3137 369.976 63.6237 366.507C60.0514 363.864 58.6277 354.381 58.1554 350.007H57.6365C57.6365 350.007 58.6211 365.287 63.311 368.755C68.001 372.223 91.2911 375.732 108.887 375.554C113.969 375.505 115.719 373.306 115.626 370.056C114.914 372.037 112.978 373.266 109.199 373.306Z" fill="black"/>
<path id="Vector_33" d="M278.55 360.379C278.55 360.379 343.079 328.042 395.633 358.762L382.993 391.1L322.456 392.717L278.55 360.379Z" fill="#6C63FF"/>
<path id="Vector_34" opacity="0.1" d="M285.189 173.338C285.392 170.316 285.729 167.309 286.2 164.332L248.947 160.289C248.947 160.289 251.528 162.998 252.652 173.103C257.023 176.256 262.125 180.5 267.574 180.5C273.931 180.512 280.118 177.997 285.189 173.338Z" fill="black"/>
<path id="Vector_35" d="M267.906 179.288C284.072 179.288 297.177 163.362 297.177 143.716C297.177 124.071 284.072 108.145 267.906 108.145C251.74 108.145 238.636 124.071 238.636 143.716C238.636 163.362 251.74 179.288 267.906 179.288Z" fill="#FFD2D9"/>
<path id="Vector_36" d="M246.286 153.013H250.277V139.27L254.269 124.718C254.269 124.718 274.226 113.4 283.539 115.825L290.857 123.909C290.857 123.909 292.853 104.507 280.878 97.2307C268.904 89.9547 247.616 93.1885 242.294 98.8476C236.972 104.507 228.324 114.208 234.977 140.887L236.972 147.354C236.972 147.354 244.955 144.12 246.286 153.013Z" fill="#844F6E"/>
<g id="Group" opacity="0.05">
<path id="Vector_37" opacity="0.05" d="M297.988 171.688L300.17 170.807L310.242 156.716C310.044 156.048 310.021 155.323 310.176 154.638L297.988 171.688Z" fill="black"/>
<path id="Vector_38" opacity="0.05" d="M283.985 197.761C289.26 194.931 293.298 188.787 293.119 179.975C293.119 179.498 293.119 179.045 293.052 178.617L292.839 178.908L284.857 182.142C285.483 184.018 285.802 186.026 285.795 188.051C285.9 191.424 285.276 194.772 283.985 197.761V197.761Z" fill="black"/>
<path id="Vector_39" opacity="0.05" d="M361.586 280.893C344.915 287.943 322.336 299.043 315.471 309.852C315.305 310.118 315.132 310.369 314.959 310.66C333.226 295.437 373.347 281.556 373.347 281.556C369.419 281.606 365.493 281.385 361.586 280.893V280.893Z" fill="black"/>
<path id="Vector_40" opacity="0.05" d="M285.535 334.105C282.874 326.829 277.905 319.189 272.616 312.439C259.647 296.01 251.417 274.908 249.166 252.306L248.947 250.027C238.303 237.092 214.022 248.006 214.022 248.006C212.758 222.879 220.188 206.379 225.79 197.664L224.333 198.286C224.333 198.286 204.708 216.476 206.704 256.09C206.704 256.09 230.985 245.176 241.629 258.111L241.849 260.391C244.1 282.993 252.329 304.095 265.298 320.523C270.62 327.274 275.576 334.889 278.217 342.189C278.217 342.189 294.429 336.53 305.785 321.364C299.665 326.949 292.821 331.255 285.535 334.105V334.105Z" fill="black"/>
</g>
<path id="Vector_41" d="M278.217 239.517C278.217 239.517 246.286 295.3 229.655 311.468C213.024 327.637 208.367 304.192 208.367 304.192V252.452L237.638 248.41L237.95 253.317L238.303 258.92L265.578 223.348C265.578 223.348 292.853 193.436 298.175 211.221C303.497 229.007 278.217 239.517 278.217 239.517Z" fill="#FFD2D9"/>
<path id="Vector_42" opacity="0.1" d="M237.95 253.317C233.954 256.142 229.716 258.428 225.311 260.132C219.024 262.485 211.82 260.011 208.347 258.515V252.476L237.618 248.434L237.95 253.317Z" fill="black"/>
<path id="Vector_43" d="M208.034 247.197L206.285 255.856C206.285 255.856 216.683 261.749 225.331 258.515C233.979 255.282 240.631 249.622 241.962 248.814C243.292 248.006 236.64 239.113 236.64 239.113L208.034 247.197Z" fill="#CEDAD5"/>
<path id="Vector_44" opacity="0.1" d="M399.624 345.827C404.06 341.693 408.997 338.42 414.259 336.126C419.259 334.037 423.97 331.039 428.229 327.233" fill="black"/>
<path id="Vector_45" opacity="0.2" d="M602.19 375.336L601.099 375.247C602.682 380.097 604.971 392.054 595.584 405.078C592.227 409.682 588.14 413.415 583.568 416.054C578.996 418.694 574.032 420.185 568.975 420.439L537.994 422.201L538.986 424.683L570.977 422.84C576.035 422.586 580.998 421.095 585.57 418.455C590.142 415.816 594.229 412.083 597.587 407.479C609.834 390.502 602.19 375.336 602.19 375.336Z" fill="white"/>
<path id="Vector_46" opacity="0.05" d="M451.34 416.97H451.24C451.327 418.878 451.48 422.816 451.506 427.141C451.533 423.341 451.433 419.606 451.34 416.97Z" fill="#00FF00"/>
<path id="Vector_47" opacity="0.05" d="M489.232 409.986C489.325 410.476 489.43 410.958 489.545 411.433C490.197 410.98 491.135 410.123 489.232 409.986Z" fill="#00FF00"/>
<path id="Vector_48" opacity="0.2" d="M541.653 428.693C534.835 432.46 483.558 421.49 476.586 419.97C476.446 420.777 476.177 421.544 475.794 422.225C475.794 422.225 534.336 435.16 541.653 431.118C545.419 429.041 546.363 426.316 545.851 423.842C545.465 425.564 544.214 427.278 541.653 428.693Z" fill="white"/>
<path id="Vector_49" opacity="0.05" d="M451.24 416.979C451.207 416.17 451.18 415.758 451.18 415.758C451.18 415.758 447.794 417.229 451.24 416.979Z" fill="#00FF00"/>
<path id="Vector_50" opacity="0.1" d="M293.797 125.93H253.324C251.825 125.93 250.61 127.407 250.61 129.229V150.119C250.61 151.941 251.825 153.418 253.324 153.418H293.797C295.296 153.418 296.512 151.941 296.512 150.119V129.229C296.512 127.407 295.296 125.93 293.797 125.93Z" fill="black"/>
<path id="Vector_51" opacity="0.1" d="M250.982 134.823H234.937C234.04 134.823 233.314 135.706 233.314 136.796V143.361C233.314 144.45 234.04 145.333 234.937 145.333H250.982C251.879 145.333 252.606 144.45 252.606 143.361V136.796C252.606 135.706 251.879 134.823 250.982 134.823Z" fill="black"/>
<path id="Vector_52" d="M293.797 125.122H253.324C251.825 125.122 250.61 126.599 250.61 128.42V149.311C250.61 151.132 251.825 152.609 253.324 152.609H293.797C295.296 152.609 296.512 151.132 296.512 149.311V128.42C296.512 126.599 295.296 125.122 293.797 125.122Z" fill="#7679B4"/>
<path id="Vector_53" d="M293.751 126.739H258.679C257.18 126.739 255.965 128.216 255.965 130.037V147.694C255.965 149.515 257.18 150.992 258.679 150.992H293.751C295.25 150.992 296.465 149.515 296.465 147.694V130.037C296.465 128.216 295.25 126.739 293.751 126.739Z" fill="#565388"/>
<path id="Vector_54" d="M250.982 134.015H234.937C234.04 134.015 233.314 134.898 233.314 135.987V142.552C233.314 143.642 234.04 144.525 234.937 144.525H250.982C251.879 144.525 252.606 143.642 252.606 142.552V135.987C252.606 134.898 251.879 134.015 250.982 134.015Z" fill="#565388"/>
<path id="Vector_55" opacity="0.1" d="M286.506 126.723C293.705 121.433 299.551 113.814 303.39 104.717C303.836 103.658 304.262 102.469 304.016 101.321C303.543 99.1224 301.182 98.7344 299.479 97.7885C296.305 96.018 294.968 91.5473 292.886 88.1437C291.106 85.3048 288.713 83.1216 285.973 81.837C283.233 80.5525 280.254 80.2169 277.366 80.8677C274.332 81.6115 271.525 83.4386 268.465 83.9883C261.866 85.1606 254.668 80.3018 248.741 83.9883C246.04 85.678 244.21 88.839 242.6 91.9919C238.562 99.8419 233.5 108.161 237.172 117.369C239.281 122.632 242.647 126.998 247.377 128.534C252.107 130.07 257.582 128.792 262.391 128.154C266.35 127.636 270.494 126.537 274.479 127.046C279.142 127.661 282.056 129.973 286.506 126.723Z" fill="black"/>
<path id="Vector_56" d="M286.506 125.106C293.705 119.816 299.551 112.197 303.39 103.1C303.836 102.041 304.262 100.852 304.016 99.7045C303.543 97.5055 301.182 97.1175 299.479 96.1716C296.305 94.4011 294.968 89.9304 292.886 86.5269C291.106 83.6879 288.713 81.5047 285.973 80.2201C283.233 78.9356 280.254 78.6 277.366 79.2508C274.332 79.9946 271.525 81.8217 268.465 82.3714C261.866 83.5437 254.668 78.6849 248.741 82.3714C246.04 84.0611 244.21 87.2221 242.6 90.375C238.562 98.225 233.5 106.544 237.172 115.752C239.281 121.015 242.647 125.381 247.377 126.917C252.107 128.453 257.582 127.175 262.391 126.537C266.35 126.019 270.494 124.92 274.479 125.429C279.142 126.044 282.056 128.356 286.506 125.106Z" fill="#844F6E"/>
</g>
<g id="tv">
<path id="Vector_57" opacity="0.2" d="M696.374 188.57L407 251.426V62.8566L696.374 0V188.57Z" fill="#6C63FF"/>
<path id="Vector_58" opacity="0.2" d="M636.422 21.7552L689.941 10.5421L690.719 39.6865L635.783 50.8512L636.422 21.7552Z" fill="#6C63FF"/>
<g id="Group_2" opacity="0.2">
<path id="Vector_59" opacity="0.1" d="M532.325 184.471C534.139 183.972 536.002 183.785 537.86 183.913C548.803 184.147 560.159 185.449 570.896 181.488C576.597 179.402 581.712 175.958 587.593 174.478C597.572 171.98 607.55 175.626 617.363 172.587C619.359 171.964 621.8 171.091 623.217 172.029C624.86 173.112 623.696 175.926 625.698 176.637C626.332 176.733 626.956 176.906 627.561 177.154C628.293 177.672 627.834 178.771 627.102 179.475C622.651 183.864 613.597 180.946 608.023 184.495C606.785 185.304 605.854 186.322 604.697 187.163C602.864 188.311 600.923 189.18 598.916 189.75L567.962 200.26C560.551 202.774 553.041 205.321 545.377 206.428C537.713 207.536 529.764 207.083 524.149 203.922C522.945 203.243 521.827 202.41 521.368 201.278C519.186 195.943 524.615 186.961 532.325 184.471Z" fill="#252223"/>
<path id="Vector_60" opacity="0.3" d="M505.017 109.997L530.915 134.881L556.812 159.757L514.277 169.531L471.741 179.297L488.379 144.647L505.017 109.997Z" fill="#6C63FF"/>
<path id="Vector_61" opacity="0.3" d="M531.946 104.241L557.844 129.117L583.741 154.001L541.206 163.767L498.67 173.541L515.308 138.891L531.946 104.241Z" fill="#6C63FF"/>
<path id="Vector_62" opacity="0.2" d="M572 52.4761L522.02 168.181L616.804 145.763L651.829 137.719L572 52.4761Z" fill="#6C63FF"/>
<path id="Vector_63" opacity="0.1" d="M651.829 137.719L616.804 145.763L572 52.4761L651.829 137.719Z" fill="black"/>
<path id="Vector_64" opacity="0.2" d="M598.35 106.116C598.182 105.363 597.8 104.706 597.271 104.262C596.743 103.819 596.102 103.616 595.463 103.691C595.463 103.691 596.128 97.3367 585.351 99.8995C585.166 99.4411 584.896 99.0406 584.564 98.7287C584.231 98.4168 583.844 98.2018 583.432 98.1003C583.02 97.9987 582.594 98.0134 582.188 98.1431C581.781 98.2729 581.405 98.5142 581.087 98.8485L580.628 95.8977C580.628 95.8977 574.721 100.013 580.981 105.882L581.732 110.733C581.751 110.855 581.783 110.975 581.826 111.088C581.859 111.177 581.886 111.269 581.905 111.363C582.191 112.778 584.294 123.991 579.517 127.823C574.401 131.987 571.474 119.157 571.474 119.157C568.148 102.398 561.815 102.462 560.312 102.729C560.132 102.729 559.946 102.778 559.759 102.794C559.054 102.842 556.866 103.796 556.027 113.457C555.023 125.05 551.371 122.156 551.371 122.156C543.182 116.731 537.401 121.477 537.401 121.477C523.191 131.631 535.272 150.678 537.767 154.292C536.829 160.04 534.933 170.169 533.11 170.59C530.529 171.18 525.699 182.191 538.778 199.314L542.257 198.505C542.257 198.505 531.5 181.431 539.969 172.934C539.785 173.56 539.562 174.168 539.303 174.753C534.56 184.608 550.699 196.484 550.699 196.484L554.571 195.595L545.63 181.908C542.077 176.249 548.703 171.625 548.703 171.625C556.546 163.653 552.508 154.033 552.508 154.033L570.816 149.829C568.554 155.909 565.228 170.849 576.284 190.526L578.865 189.936L576.756 166.071C576.756 166.071 577.422 160.937 581.905 153.192C583.688 162.893 587.467 179.636 593.175 186.646L596.913 185.789C596.913 185.789 592.356 169.903 592.257 163.961C592.21 161.535 592.123 159.15 591.944 156.757L591.012 144.243C592.523 143.079 593.707 141.386 594.408 139.386C595.109 137.387 595.293 135.176 594.937 133.046L591.498 111.331C591.45 111.025 591.453 110.711 591.508 110.407C591.563 110.103 591.668 109.816 591.818 109.563C591.967 109.31 592.158 109.097 592.377 108.937C592.597 108.777 592.841 108.672 593.095 108.631L597.505 107.903C597.665 107.869 597.816 107.793 597.948 107.68C598.081 107.567 598.191 107.42 598.272 107.25C598.352 107.08 598.401 106.89 598.415 106.694C598.428 106.498 598.406 106.301 598.35 106.116V106.116Z" fill="url(#paint0_linear)"/>
<path id="Vector_65" opacity="0.2" d="M580.389 146.021C580.389 146.021 584.526 175.982 592.622 185.91L596.295 185.101C596.295 185.101 591.824 169.507 591.704 163.694C591.658 161.333 591.578 158.973 591.398 156.62L589.895 136.409L580.389 146.021Z" fill="#535461"/>
<path id="Vector_66" opacity="0.05" d="M580.389 146.021C580.389 146.021 584.526 175.982 592.622 185.91L596.295 185.101C596.295 185.101 591.824 169.507 591.704 163.694C591.658 161.333 591.578 158.973 591.398 156.62L589.895 136.409L580.389 146.021Z" fill="black"/>
<path id="Vector_67" opacity="0.2" d="M538.818 150.314C538.818 150.314 536.157 169.563 533.642 170.145C531.127 170.727 526.364 181.536 539.21 198.344L542.629 197.535C542.629 197.535 530.788 178.747 542.051 171.059C542.044 171.083 544.007 155.011 538.818 150.314Z" fill="#535461"/>
<path id="Vector_68" opacity="0.05" d="M538.818 150.314C538.818 150.314 536.157 169.563 533.642 170.145C531.127 170.727 526.364 181.536 539.21 198.344L542.629 197.535C542.629 197.535 530.788 178.747 542.051 171.059C542.044 171.083 544.007 155.011 538.818 150.314Z" fill="black"/>
<path id="Vector_69" opacity="0.2" d="M581.407 111.42L580.668 106.682C574.528 100.926 580.322 96.884 580.322 96.884L581.114 101.961C595.663 96.8678 594.884 104.532 594.884 104.532C595.509 104.454 596.136 104.648 596.655 105.079C597.174 105.509 597.55 106.149 597.718 106.884C597.772 107.069 597.791 107.266 597.775 107.461C597.758 107.656 597.706 107.844 597.621 108.012C597.537 108.179 597.423 108.321 597.288 108.429C597.153 108.536 597 108.605 596.84 108.631L592.509 109.35C592.26 109.391 592.02 109.493 591.804 109.65C591.588 109.808 591.401 110.017 591.254 110.265C591.107 110.513 591.004 110.795 590.949 111.094C590.895 111.393 590.892 111.702 590.939 112.002L594.312 133.321C594.557 134.846 594.526 136.418 594.221 137.927C593.915 139.437 593.342 140.847 592.543 142.06C591.292 143.927 589.29 145.609 586.096 146.223L552.675 153.904C552.675 153.904 556.666 163.354 548.936 171.172C548.936 171.172 542.43 175.691 545.916 181.269L554.69 194.706L550.892 195.579C550.892 195.579 535.052 183.921 539.709 174.244C540.974 171.169 541.541 167.74 541.353 164.31C541.164 160.879 540.227 157.572 538.638 154.728C538.638 154.728 522.406 132.965 537.86 121.922C537.86 121.922 543.561 117.265 551.597 122.593C551.597 122.593 555.183 125.43 556.167 114.055C556.985 104.572 559.134 103.634 559.826 103.586C560.006 103.586 560.185 103.586 560.365 103.521C561.842 103.263 568.075 103.198 571.328 119.65C571.328 119.65 574.202 132.213 579.211 128.195C583.901 124.436 581.872 113.425 581.559 112.026C581.54 111.934 581.513 111.845 581.48 111.759V111.759C581.444 111.65 581.42 111.536 581.407 111.42V111.42Z" fill="#535461"/>
<path id="Vector_70" opacity="0.2" d="M571.973 146.838C571.973 146.838 561.689 164.179 576.025 189.685L578.559 189.103L576.49 165.658C576.49 165.658 577.714 155.82 588.817 142.909L571.973 146.838Z" fill="#535461"/>
<path id="Vector_71" opacity="0.2" d="M583.039 105.546C584.508 105.208 585.474 103.487 585.196 101.702C584.919 99.916 583.502 98.742 582.033 99.0794C580.564 99.4168 579.598 101.138 579.875 102.923C580.153 104.709 581.569 105.883 583.039 105.546Z" fill="#535461"/>
<path id="Vector_72" opacity="0.2" d="M571.135 123.854C574.262 118.073 572.399 117.693 571.188 116.173C570.363 115.139 563.432 114.743 559.114 114.597C559.021 114.193 558.875 113.514 558.702 112.689C558.702 112.689 558.356 111.169 558.196 110.102H558.469L558.429 109.787L563.751 109.439C568.295 109.213 568.514 107.014 568.514 107.014C568.621 103.238 563.491 106.86 563.491 106.86C562.474 107.467 559.773 107.014 557.664 106.513C557.605 105.976 557.572 105.437 557.564 104.896C557.59 104.06 557.546 103.223 557.431 102.398C557.356 101.685 557.127 101.01 556.766 100.441C555.206 98.175 553.402 96.1737 551.404 94.491C551.286 93.0644 551.395 91.6237 551.723 90.2467C552.53 89.743 553.183 88.9378 553.585 87.9497C553.988 86.9615 554.119 85.8425 553.959 84.7573C553.881 84.2603 553.742 83.7805 553.546 83.3345C554.497 81.7984 554.052 79.171 552.735 77.732C552.594 77.5783 552.443 77.4403 552.282 77.3196C551.428 76.6254 550.393 76.3376 549.375 76.5112C548.24 76.7366 547.161 77.2729 546.222 78.0796C545.098 78.985 544.007 80.133 542.663 80.3109C541.691 80.4402 540.667 80.036 539.756 80.3998C538.552 80.8687 537.933 82.429 537.547 83.86C537.161 85.2909 536.789 86.8674 535.744 87.7243C534.833 88.4681 533.655 88.46 532.584 88.7753C531.836 88.9665 531.139 89.3785 530.553 89.9749C529.967 90.5713 529.511 91.3337 529.225 92.195C529.014 92.9707 529.018 93.8089 529.237 94.5814C529.456 95.3538 529.877 96.0178 530.436 96.4717C530.612 96.6287 530.804 96.7565 531.008 96.8517C531.235 96.937 531.458 97.0423 531.673 97.1669C531.732 97.2197 531.782 97.2861 531.82 97.3625C531.857 97.4388 531.882 97.5235 531.892 97.6116C531.896 97.8322 531.857 98.0508 531.779 98.2503C531.656 98.6961 531.609 99.1682 531.642 99.637C531.675 100.106 531.788 100.561 531.972 100.975C532.095 101.277 532.287 101.529 532.524 101.702C532.591 101.77 532.665 101.827 532.744 101.872C533.522 102.284 534.487 101.355 535.259 101.775H535.318C535.618 102.169 535.877 102.606 536.09 103.077C536.273 103.354 536.499 103.585 536.755 103.756C537.433 104.295 538.251 104.508 539.05 104.354C540.066 104.116 541.035 103.644 541.904 102.964C543.082 102.155 544.366 101.031 544.459 99.4306C544.512 98.4524 544.093 97.5065 544.193 96.5364C544.247 96.073 544.401 95.6352 544.639 95.2671C544.506 96.0866 544.459 96.9233 544.499 97.7571C544.523 98.4333 544.59 99.1063 544.698 99.7701C544.951 101.505 545.465 103.169 546.215 104.677C547.223 106.64 547.963 108.789 548.404 111.04C548.561 112.032 548.575 113.05 548.444 114.047C548.018 116.942 548.065 118.186 548.184 118.712C548.257 119.423 548.45 119.432 548.45 119.432H548.497C548.518 119.922 548.621 120.402 548.799 120.842C548.978 121.283 549.228 121.675 549.535 121.994C555.555 125.018 567.802 120.733 567.802 120.733C565.328 121.792 563.558 130.03 563.558 130.03C563.288 131.823 562.673 133.513 561.762 134.962V134.962C560.431 134.719 558.861 136.53 557.677 137.589L557.578 137.67C557.462 137.766 557.365 137.89 557.293 138.036C557.221 138.181 557.175 138.343 557.158 138.512C557.142 138.68 557.155 138.851 557.198 139.012C557.24 139.174 557.311 139.323 557.405 139.449L562.114 145.722C564.829 148.059 566.392 148.212 566.831 147.549C567.117 147.113 566.924 146.337 566.259 145.585C564.649 143.766 564.882 137.864 564.928 137.363C565.667 135.342 568.507 128.712 571.135 123.854Z" fill="url(#paint1_linear)"/>
<path id="Vector_73" opacity="0.2" d="M552.103 89.5029C552.103 89.5029 550.732 93.3268 551.637 96.6172L546.535 93.3268C546.535 93.3268 548.158 92.7932 547.818 88.0962L552.103 89.5029Z" fill="#F9D5C6"/>
<path id="Vector_74" opacity="0.2" d="M555.522 114.848C555.522 114.848 569.06 115.082 570.21 116.57C571.361 118.057 573.124 118.453 570.21 124.064C567.297 129.675 564.077 137.743 564.077 137.743L560.631 135.827C561.88 134.222 562.707 132.201 563.006 130.022C563.006 130.022 564.642 121.994 566.997 120.984C566.997 120.984 555.442 125.074 549.701 122.083C549.701 122.083 548.171 120.685 548.883 117.653C549.595 114.621 555.522 114.848 555.522 114.848Z" fill="#353535"/>
<path id="Vector_75" opacity="0.1" d="M548.005 93.4723C548.005 93.4723 544.625 92.4618 544.871 98.7596C544.969 101.042 545.521 103.262 546.481 105.227C547.579 107.507 549.142 111.428 548.683 114.686C548.018 119.617 548.683 119.626 548.683 119.626L550.413 118.348C552.743 116.619 555.419 115.696 558.15 115.68H558.955C558.955 115.68 557.331 108.598 557.298 105.462C557.298 103.974 557.298 102.592 556.56 101.419C554.251 97.7975 549.621 93.4642 548.005 93.4723Z" fill="black"/>
<path id="Vector_76" opacity="0.2" d="M547.958 93.1813C547.958 93.1813 544.579 92.1708 544.825 98.4685C544.922 100.751 545.475 102.971 546.435 104.936C547.532 107.216 549.096 111.137 548.637 114.395C547.971 119.326 548.637 119.334 548.637 119.334L550.366 118.057C552.697 116.328 555.372 115.405 558.103 115.389H558.908C558.908 115.389 557.285 108.307 557.252 105.171C557.252 103.683 557.252 102.301 556.513 101.128C554.205 97.4903 549.575 93.1813 547.958 93.1813Z" fill="#409CD6"/>
<path id="Vector_77" opacity="0.1" d="M546.701 98.226C546.84 97.7612 547.074 97.3463 547.379 97.0193C547.685 96.6923 548.053 96.4636 548.45 96.3542C548.847 96.2449 549.26 96.2582 549.652 96.3931C550.044 96.5281 550.401 96.7802 550.692 97.1265C551.214 97.7928 551.629 98.5714 551.916 99.4225C553.52 103.837 554.737 106.585 554.737 106.585C555.768 106.771 556.784 107.058 557.777 107.442C557.93 108.954 558.13 110.522 558.13 110.522L553.812 110.781L547.898 102.26C547.898 102.26 546.095 100.457 546.701 98.226Z" fill="black"/>
<path id="Vector_78" opacity="0.2" d="M546.648 97.9107C546.787 97.4459 547.02 97.031 547.326 96.704C547.631 96.377 548 96.1483 548.397 96.0389C548.794 95.9295 549.207 95.9429 549.599 96.0779C549.991 96.2128 550.348 96.4649 550.639 96.8112C551.161 97.4775 551.576 98.2561 551.863 99.1072C553.466 103.521 554.684 106.27 554.684 106.27C554.684 106.27 561.183 108.445 562.859 107.418C562.859 107.418 567.689 103.917 567.609 107.604C567.609 107.604 567.416 109.722 563.119 109.908L553.766 110.466L547.852 101.945C547.852 101.945 546.049 100.11 546.648 97.9107Z" fill="#F9D5C6"/>
<path id="Vector_79" opacity="0.1" d="M547.426 90.1739C547.552 89.4382 547.838 89.7212 547.745 88.4277L552.029 89.8343C551.852 90.36 551.705 90.9003 551.59 91.4512C551.161 91.6299 550.713 91.7307 550.26 91.7504C549.315 91.9767 548.231 90.7156 547.426 90.1739Z" fill="black"/>
<path id="Vector_80" opacity="0.2" d="M550.468 91.6746C552.706 91.1606 554.178 88.5389 553.755 85.8187C553.332 83.0986 551.175 81.3102 548.936 81.8242C546.698 82.3382 545.226 84.9599 545.649 87.68C546.072 90.4001 548.23 92.1886 550.468 91.6746Z" fill="#F9D5C6"/>
<path id="Vector_81" opacity="0.1" d="M551.391 85.5496C550.659 85.5981 549.861 85.3152 549.242 85.7841C548.623 86.253 548.444 87.5384 548.577 88.5409C548.71 89.5433 549.056 90.5539 548.863 91.5483C548.603 92.8499 547.532 93.6502 546.601 94.3374C545.67 95.0246 544.605 95.9543 544.505 97.264C544.419 98.2098 544.818 99.1395 544.772 100.094C544.692 101.654 543.488 102.729 542.37 103.521C541.563 104.173 540.659 104.626 539.709 104.855C539.226 104.96 538.728 104.907 538.266 104.703C537.805 104.498 537.396 104.149 537.081 103.691C536.782 103.19 536.602 102.519 536.137 102.26C535.405 101.84 534.494 102.745 533.762 102.341C533.504 102.175 533.299 101.911 533.176 101.589C533.001 101.185 532.893 100.742 532.86 100.287C532.827 99.8316 532.869 99.3728 532.983 98.9374C533.055 98.7417 533.089 98.5289 533.083 98.315C533.023 97.8056 532.511 97.6359 532.112 97.4499C531.455 97.0679 530.935 96.4086 530.649 95.595C530.362 94.7813 530.329 93.8689 530.555 93.0277C530.812 92.198 531.235 91.4598 531.787 90.8807C532.34 90.3015 533.002 89.9001 533.715 89.7131C534.726 89.4059 535.844 89.4221 536.696 88.7106C537.68 87.9022 538.026 86.3419 538.379 84.9514C538.731 83.5608 539.31 82.041 540.448 81.5963C541.326 81.2487 542.277 81.6448 543.195 81.5316C544.466 81.3699 545.49 80.2543 546.521 79.3812C547.401 78.6013 548.42 78.0835 549.495 77.8694C550.033 77.7681 550.583 77.8096 551.106 77.991C551.63 78.1724 552.115 78.4895 552.528 78.9203C554.364 80.9495 554.477 85.3475 551.391 85.5496Z" fill="black"/>
<path id="Vector_82" opacity="0.2" d="M551.238 85.4283C550.506 85.4768 549.708 85.1939 549.089 85.6628C548.47 86.1317 548.291 87.4171 548.424 88.4196C548.557 89.422 548.903 90.4326 548.71 91.427C548.45 92.7286 547.379 93.529 546.448 94.2161C545.517 94.9033 544.452 95.833 544.353 97.1427C544.266 98.0886 544.665 99.0183 544.619 99.9723C544.539 101.533 543.335 102.608 542.217 103.4C541.41 104.051 540.506 104.504 539.556 104.734C539.075 104.839 538.579 104.788 538.119 104.587C537.659 104.385 537.251 104.04 536.935 103.586C536.636 103.085 536.456 102.414 535.99 102.155C535.259 101.735 534.347 102.64 533.615 102.236C533.358 102.07 533.152 101.806 533.03 101.484C532.854 101.08 532.747 100.637 532.714 100.182C532.681 99.7265 532.723 99.2677 532.837 98.8323C532.909 98.6366 532.943 98.4238 532.937 98.2099C532.877 97.7005 532.365 97.5308 531.966 97.3448C531.309 96.9628 530.789 96.3035 530.502 95.4899C530.216 94.6762 530.183 93.7638 530.409 92.9226C530.665 92.0929 531.089 91.3547 531.641 90.7756C532.193 90.1964 532.856 89.795 533.569 89.608C534.58 89.3008 535.698 89.317 536.549 88.6055C537.534 87.7971 537.88 86.2368 538.232 84.8463C538.585 83.4557 539.164 81.9359 540.301 81.4912C541.179 81.1436 542.131 81.5397 543.049 81.4265C544.319 81.2648 545.344 80.1492 546.375 79.2761C547.255 78.4962 548.274 77.9784 549.348 77.7643C549.887 77.663 550.436 77.7045 550.96 77.8859C551.484 78.0673 551.969 78.3844 552.382 78.8153C554.211 80.8283 554.324 85.2181 551.238 85.4283Z" fill="#2F302F"/>
<path id="Vector_83" opacity="0.1" d="M552.449 98.1047C552.449 98.1047 547.127 98.5251 547.579 103.044C548.031 107.564 545.73 97.8945 545.73 97.8945L547.798 95.1863L550.752 95.6228L552.449 98.1047Z" fill="black"/>
<path id="Vector_84" opacity="0.2" d="M552.309 97.9754C552.309 97.9754 546.987 98.3958 547.439 102.915C547.892 107.434 545.59 97.7652 545.59 97.7652L547.659 95.0569L550.612 95.4935L552.309 97.9754Z" fill="#409CD6"/>
<path id="Vector_85" opacity="0.2" d="M557.218 139.141L561.702 145.294C564.283 147.59 565.76 147.719 566.172 147.113C566.439 146.692 566.252 145.932 565.62 145.197C564.017 143.337 564.29 137.112 564.29 137.112C563.655 137.136 563.029 136.925 562.495 136.506C561.962 136.087 561.546 135.481 561.303 134.768C560.032 134.525 558.569 136.279 557.451 137.298L557.358 137.379C557.246 137.477 557.153 137.603 557.085 137.748C557.016 137.894 556.974 138.055 556.961 138.222C556.948 138.389 556.964 138.557 557.008 138.715C557.053 138.874 557.124 139.019 557.218 139.141V139.141Z" fill="#409CD6"/>
<path id="Vector_86" opacity="0.1" d="M564.296 137.128C564.296 137.128 561.742 137.557 561.309 134.784C561.561 135.489 561.98 136.088 562.511 136.505C563.043 136.923 563.664 137.139 564.296 137.128V137.128Z" fill="black"/>
<path id="Vector_87" opacity="0.1" d="M557.218 139.141L561.702 145.294C564.283 147.59 565.76 147.719 566.172 147.113C564.882 146.628 561.23 144.687 557.464 137.322L557.371 137.403C557.262 137.5 557.17 137.624 557.103 137.767C557.035 137.909 556.992 138.067 556.978 138.231C556.964 138.395 556.978 138.56 557.019 138.717C557.06 138.874 557.128 139.018 557.218 139.141V139.141Z" fill="black"/>
<path id="Vector_88" opacity="0.2" d="M483.816 187.292C483.816 187.292 471.954 200.179 498.983 209.597C498.983 209.597 502.509 196.08 494.945 187.462C493.475 185.78 491.549 184.812 489.531 184.74C487.513 184.669 485.543 185.499 483.995 187.074L483.816 187.292Z" fill="#6C63FF"/>
<path id="Vector_89" opacity="0.2" d="M483.929 187.05C483.929 187.05 497.054 195.045 498.983 209.597" stroke="#535461" stroke-miterlimit="10"/>
<path id="Vector_90" opacity="0.2" d="M498.238 209.735C498.238 209.735 491.353 193.388 494.353 179.507C495.648 173.681 495.349 167.501 493.501 161.899C492.61 159.253 491.521 156.712 490.248 154.308" stroke="#535461" stroke-width="2" stroke-miterlimit="10"/>
<path id="Vector_91" opacity="0.2" d="M492.098 145.585C492.43 147.703 490.222 154.583 490.222 154.583C490.222 154.583 486.104 149.158 485.778 147.04C485.619 146.021 485.8 144.968 486.28 144.111C486.76 143.255 487.501 142.665 488.339 142.472C489.177 142.279 490.044 142.499 490.749 143.082C491.454 143.666 491.939 144.566 492.098 145.585Z" fill="#6C63FF"/>
<path id="Vector_92" opacity="0.2" d="M499.149 156.135C498.484 158.132 493.555 162.449 493.555 162.449C493.555 162.449 492.524 155.173 493.195 153.176C493.355 152.698 493.591 152.263 493.889 151.896C494.187 151.529 494.542 151.237 494.933 151.037C495.324 150.836 495.744 150.732 496.168 150.728C496.593 150.725 497.013 150.823 497.406 151.017C497.8 151.212 498.157 151.498 498.459 151.861C498.761 152.223 499.002 152.654 499.167 153.129C499.332 153.604 499.418 154.114 499.421 154.63C499.423 155.146 499.342 155.657 499.183 156.135H499.149Z" fill="#6C63FF"/>
<path id="Vector_93" opacity="0.2" d="M502.043 176.265C500.633 177.575 494.586 178.286 494.586 178.286C494.586 178.286 496.721 171.374 498.125 170.064C498.801 169.434 499.656 169.156 500.502 169.292C501.347 169.427 502.113 169.966 502.632 170.788C503.151 171.61 503.379 172.649 503.268 173.676C503.156 174.704 502.713 175.635 502.036 176.265H502.043Z" fill="#6C63FF"/>
<path id="Vector_94" opacity="0.2" d="M501.411 192.094C500.207 193.711 494.346 195.611 494.346 195.611C494.346 195.611 495.484 188.335 496.695 186.783C496.982 186.407 497.327 186.103 497.71 185.888C498.094 185.674 498.509 185.554 498.931 185.534C499.352 185.515 499.773 185.596 500.169 185.775C500.565 185.953 500.929 186.224 501.238 186.573C501.548 186.922 501.798 187.341 501.974 187.807C502.151 188.274 502.25 188.777 502.266 189.29C502.282 189.803 502.215 190.314 502.068 190.796C501.921 191.277 501.698 191.718 501.411 192.094V192.094Z" fill="#6C63FF"/>
<path id="Vector_95" opacity="0.2" d="M486.982 164.381C488.466 165.569 494.533 165.763 494.533 165.763C494.533 165.763 492.011 159.053 490.541 157.857C490.189 157.574 489.794 157.378 489.379 157.281C488.964 157.183 488.538 157.186 488.124 157.289C487.71 157.392 487.317 157.593 486.967 157.88C486.617 158.168 486.317 158.536 486.084 158.964C485.851 159.393 485.69 159.873 485.61 160.377C485.53 160.881 485.532 161.399 485.617 161.902C485.701 162.405 485.866 162.883 486.103 163.308C486.34 163.734 486.643 164.098 486.995 164.381H486.982Z" fill="#6C63FF"/>
<path id="Vector_96" opacity="0.2" d="M486.437 182.919C488.146 183.517 493.98 181.488 493.98 181.488C493.98 181.488 489.922 175.998 488.213 175.4C487.393 175.114 486.514 175.235 485.768 175.737C485.022 176.239 484.47 177.08 484.235 178.076C483.999 179.072 484.099 180.141 484.512 181.048C484.925 181.954 485.617 182.624 486.437 182.911V182.919Z" fill="#6C63FF"/>
<path id="Vector_97" opacity="0.2" d="M487.92 201.004C489.517 201.941 495.557 201.149 495.557 201.149C495.557 201.149 492.317 194.908 490.721 193.97C489.952 193.519 489.068 193.457 488.262 193.798C487.456 194.139 486.795 194.855 486.423 195.789C486.052 196.723 486.001 197.798 486.282 198.777C486.562 199.757 487.152 200.56 487.92 201.012V201.004Z" fill="#6C63FF"/>
<path id="Vector_98" opacity="0.25" d="M492.098 145.585C492.43 147.703 490.222 154.583 490.222 154.583C490.222 154.583 486.104 149.158 485.778 147.04C485.619 146.021 485.8 144.968 486.28 144.111C486.76 143.255 487.501 142.665 488.339 142.472C489.177 142.279 490.044 142.499 490.749 143.082C491.454 143.666 491.939 144.566 492.098 145.585Z" fill="black"/>
<path id="Vector_99" opacity="0.25" d="M499.149 156.135C498.484 158.132 493.555 162.449 493.555 162.449C493.555 162.449 492.524 155.173 493.195 153.176C493.355 152.698 493.591 152.263 493.889 151.896C494.187 151.529 494.542 151.237 494.933 151.037C495.324 150.836 495.744 150.732 496.168 150.728C496.593 150.725 497.013 150.823 497.406 151.017C497.8 151.212 498.157 151.498 498.459 151.861C498.761 152.223 499.002 152.654 499.167 153.129C499.332 153.604 499.418 154.114 499.421 154.63C499.423 155.146 499.342 155.657 499.183 156.135H499.149Z" fill="black"/>
<path id="Vector_100" opacity="0.25" d="M502.043 176.265C500.633 177.575 494.586 178.286 494.586 178.286C494.586 178.286 496.721 171.374 498.125 170.064C498.801 169.434 499.656 169.156 500.502 169.292C501.347 169.427 502.113 169.966 502.632 170.788C503.151 171.61 503.379 172.649 503.268 173.676C503.156 174.704 502.713 175.635 502.036 176.265H502.043Z" fill="black"/>
<path id="Vector_101" opacity="0.25" d="M501.411 192.094C500.207 193.711 494.346 195.611 494.346 195.611C494.346 195.611 495.484 188.335 496.695 186.783C496.982 186.407 497.327 186.103 497.71 185.888C498.094 185.674 498.509 185.554 498.931 185.534C499.352 185.515 499.773 185.596 500.169 185.775C500.565 185.953 500.929 186.224 501.238 186.573C501.548 186.922 501.798 187.341 501.974 187.807C502.151 188.274 502.25 188.777 502.266 189.29C502.282 189.803 502.215 190.314 502.068 190.796C501.921 191.277 501.698 191.718 501.411 192.094V192.094Z" fill="black"/>
<path id="Vector_102" opacity="0.25" d="M486.982 164.381C488.466 165.569 494.533 165.763 494.533 165.763C494.533 165.763 492.011 159.053 490.541 157.857C490.189 157.574 489.794 157.378 489.379 157.281C488.964 157.183 488.538 157.186 488.124 157.289C487.71 157.392 487.317 157.593 486.967 157.88C486.617 158.168 486.317 158.536 486.084 158.964C485.851 159.393 485.69 159.873 485.61 160.377C485.53 160.881 485.532 161.399 485.617 161.902C485.701 162.405 485.866 162.883 486.103 163.308C486.34 163.734 486.643 164.098 486.995 164.381H486.982Z" fill="black"/>
<path id="Vector_103" opacity="0.25" d="M486.437 182.919C488.146 183.517 493.98 181.488 493.98 181.488C493.98 181.488 489.922 175.998 488.213 175.4C487.393 175.114 486.514 175.235 485.768 175.737C485.022 176.239 484.47 177.08 484.235 178.076C483.999 179.072 484.099 180.141 484.512 181.048C484.925 181.954 485.617 182.624 486.437 182.911V182.919Z" fill="black"/>
<path id="Vector_104" opacity="0.25" d="M487.92 201.004C489.517 201.941 495.557 201.149 495.557 201.149C495.557 201.149 492.317 194.908 490.721 193.97C489.952 193.519 489.068 193.457 488.262 193.798C487.456 194.139 486.795 194.855 486.423 195.789C486.052 196.723 486.001 197.798 486.282 198.777C486.562 199.757 487.152 200.56 487.92 201.012V201.004Z" fill="black"/>
<path id="Vector_105" opacity="0.2" d="M511.203 212.831C511.203 212.831 504.318 196.484 507.318 182.603C508.608 176.791 508.312 170.626 506.474 165.036C505.582 162.39 504.493 159.849 503.221 157.445" stroke="#535461" stroke-width="2" stroke-miterlimit="10"/>
<path id="Vector_106" opacity="0.2" d="M505.09 148.673C505.423 150.791 503.214 157.671 503.214 157.671C503.214 157.671 499.096 152.246 498.77 150.128C498.611 149.11 498.792 148.056 499.272 147.2C499.753 146.343 500.493 145.753 501.331 145.56C502.169 145.367 503.036 145.587 503.741 146.171C504.446 146.754 504.931 147.654 505.09 148.673Z" fill="#6C63FF"/>
<path id="Vector_107" opacity="0.2" d="M512.141 159.223C511.476 161.22 506.547 165.537 506.547 165.537C506.547 165.537 505.516 158.261 506.188 156.264C506.51 155.299 507.135 154.53 507.925 154.125C508.715 153.72 509.605 153.713 510.399 154.106C511.192 154.498 511.826 155.258 512.159 156.217C512.492 157.177 512.498 158.258 512.175 159.223H512.141Z" fill="#6C63FF"/>
<path id="Vector_108" opacity="0.2" d="M515.035 179.353C513.625 180.663 507.578 181.375 507.578 181.375C507.578 181.375 509.713 174.462 511.117 173.153C511.794 172.522 512.649 172.244 513.494 172.38C514.339 172.516 515.105 173.054 515.624 173.876C516.143 174.698 516.371 175.737 516.26 176.765C516.148 177.792 515.705 178.723 515.029 179.353H515.035Z" fill="#6C63FF"/>
<path id="Vector_109" opacity="0.2" d="M514.403 195.183C513.199 196.8 507.338 198.699 507.338 198.699C507.338 198.699 508.476 191.423 509.687 189.871C510.266 189.111 511.071 188.662 511.923 188.623C512.775 188.583 513.605 188.957 514.23 189.661C514.856 190.365 515.225 191.343 515.258 192.378C515.29 193.414 514.983 194.423 514.403 195.183V195.183Z" fill="#6C63FF"/>
<path id="Vector_110" opacity="0.2" d="M499.974 167.469C501.458 168.658 507.525 168.852 507.525 168.852C507.525 168.852 505.003 162.142 503.533 160.945C503.181 160.662 502.786 160.466 502.371 160.369C501.956 160.271 501.53 160.274 501.116 160.377C500.702 160.48 500.309 160.681 499.959 160.968C499.609 161.256 499.309 161.624 499.076 162.053C498.843 162.481 498.682 162.961 498.602 163.465C498.522 163.969 498.524 164.487 498.609 164.99C498.693 165.493 498.859 165.971 499.095 166.396C499.332 166.822 499.635 167.186 499.988 167.469H499.974Z" fill="#6C63FF"/>
<path id="Vector_111" opacity="0.2" d="M499.429 185.999C501.138 186.597 506.973 184.568 506.973 184.568C506.973 184.568 502.915 179.079 501.205 178.48C500.385 178.194 499.506 178.315 498.76 178.817C498.014 179.319 497.462 180.16 497.227 181.156C496.991 182.152 497.091 183.221 497.504 184.128C497.917 185.034 498.609 185.704 499.429 185.991V185.999Z" fill="#6C63FF"/>
<path id="Vector_112" opacity="0.2" d="M500.932 204.092C502.529 205.03 508.569 204.237 508.569 204.237C508.569 204.237 505.329 197.996 503.733 197.058C503.352 196.835 502.939 196.705 502.518 196.675C502.096 196.646 501.673 196.717 501.274 196.886C500.875 197.055 500.507 197.318 500.192 197.66C499.876 198.001 499.619 198.415 499.435 198.877C499.251 199.34 499.144 199.842 499.12 200.354C499.096 200.867 499.155 201.38 499.294 201.865C499.433 202.35 499.649 202.797 499.93 203.181C500.211 203.564 500.552 203.876 500.932 204.1V204.092Z" fill="#6C63FF"/>
<path id="Vector_113" opacity="0.1" d="M538.691 63.4306L537.52 63.6973C537.737 63.647 537.929 63.4939 538.053 63.2718C538.177 63.0496 538.224 62.7767 538.182 62.513C538.141 62.2492 538.015 62.0163 537.832 61.8655C537.649 61.7146 537.425 61.6582 537.208 61.7086L527.728 63.8833C527.511 63.9337 527.319 64.0868 527.195 64.3089C527.071 64.531 527.025 64.8039 527.066 65.0677C527.108 65.3314 527.234 65.5643 527.416 65.7152C527.599 65.866 527.824 65.9225 528.041 65.8721L529.212 65.6053C529.104 65.6302 529.002 65.6807 528.91 65.7537C528.819 65.8267 528.74 65.9209 528.679 66.0309C528.617 66.1408 528.574 66.2645 528.552 66.3947C528.53 66.5248 528.529 66.6591 528.55 66.7896C528.57 66.9202 528.612 67.0446 528.672 67.1557C528.732 67.2668 528.809 67.3624 528.9 67.4371C528.99 67.5118 529.092 67.5641 529.199 67.5911C529.306 67.618 529.417 67.619 529.524 67.5941L527.888 67.974C527.671 68.0244 527.479 68.1775 527.355 68.3996C527.231 68.6217 527.184 68.8947 527.226 69.1584C527.267 69.4221 527.393 69.655 527.576 69.8059C527.759 69.9567 527.983 70.0132 528.2 69.9628L537.68 67.7881C537.788 67.7631 537.89 67.7127 537.981 67.6397C538.073 67.5667 538.151 67.4725 538.213 67.3625C538.274 67.2525 538.317 67.1289 538.34 66.9987C538.362 66.8685 538.363 66.7343 538.342 66.6037C538.321 66.4731 538.28 66.3487 538.22 66.2376C538.16 66.1265 538.082 66.0309 537.992 65.9562C537.901 65.8815 537.8 65.8292 537.692 65.8023C537.585 65.7754 537.475 65.7744 537.367 65.7993L539.004 65.4193C539.111 65.3944 539.214 65.344 539.305 65.2709C539.397 65.1979 539.475 65.1037 539.537 64.9937C539.598 64.8838 539.641 64.7602 539.663 64.63C539.686 64.4998 539.686 64.3656 539.666 64.235C539.645 64.1044 539.604 63.98 539.544 63.8689C539.484 63.7578 539.406 63.6622 539.316 63.5875C539.225 63.5128 539.123 63.4605 539.016 63.4336C538.909 63.4066 538.799 63.4056 538.691 63.4306Z" fill="#252223"/>
<path id="Vector_114" opacity="0.1" d="M521.521 83.2132L520.351 83.48C520.458 83.455 520.56 83.4046 520.652 83.3316C520.743 83.2586 520.822 83.1644 520.883 83.0544C520.945 82.9444 520.988 82.8208 521.01 82.6906C521.032 82.5604 521.033 82.4262 521.012 82.2956C520.992 82.165 520.95 82.0406 520.89 81.9295C520.83 81.8184 520.753 81.7228 520.662 81.6481C520.572 81.5734 520.47 81.5211 520.363 81.4942C520.256 81.4673 520.145 81.4663 520.038 81.4912L510.538 83.6659C510.321 83.7163 510.13 83.8694 510.005 84.0915C509.881 84.3136 509.835 84.5866 509.876 84.8503C509.918 85.114 510.044 85.3469 510.227 85.4978C510.409 85.6486 510.634 85.7051 510.851 85.6547L512.022 85.3879C511.914 85.4129 511.812 85.4633 511.72 85.5363C511.629 85.6093 511.55 85.7035 511.489 85.8135C511.427 85.9235 511.384 86.0471 511.362 86.1773C511.34 86.3075 511.339 86.4417 511.36 86.5723C511.38 86.7029 511.422 86.8273 511.482 86.9384C511.542 87.0494 511.62 87.1451 511.71 87.2198C511.801 87.2945 511.902 87.3468 512.009 87.3737C512.117 87.4006 512.227 87.4016 512.334 87.3767L510.698 87.7567C510.59 87.7816 510.488 87.832 510.397 87.9051C510.305 87.9781 510.227 88.0723 510.165 88.1823C510.104 88.2922 510.061 88.4158 510.038 88.546C510.016 88.6762 510.015 88.8105 510.036 88.941C510.057 89.0716 510.098 89.196 510.158 89.3071C510.218 89.4182 510.296 89.5138 510.386 89.5885C510.477 89.6632 510.578 89.7155 510.686 89.7425C510.793 89.7694 510.903 89.7704 511.011 89.7454L520.517 87.5707C520.624 87.5458 520.727 87.4953 520.818 87.4223C520.909 87.3493 520.988 87.2551 521.05 87.1451C521.111 87.0351 521.154 86.9115 521.176 86.7813C521.198 86.6511 521.199 86.5169 521.179 86.3863C521.158 86.2558 521.117 86.1314 521.057 86.0203C520.997 85.9092 520.919 85.8136 520.829 85.7389C520.738 85.6642 520.636 85.6119 520.529 85.5849C520.422 85.558 520.312 85.557 520.204 85.5819L521.841 85.202C521.948 85.177 522.05 85.1266 522.142 85.0536C522.233 84.9806 522.312 84.8864 522.373 84.7764C522.435 84.6664 522.478 84.5428 522.5 84.4126C522.522 84.2824 522.523 84.1482 522.503 84.0176C522.482 83.887 522.441 83.7626 522.38 83.6515C522.32 83.5404 522.243 83.4448 522.152 83.3701C522.062 83.2954 521.96 83.2431 521.853 83.2162C521.746 83.1893 521.635 83.1883 521.528 83.2132H521.521Z" fill="#252223"/>
<path id="Vector_115" opacity="0.1" d="M618.494 57.9412L617.323 58.208C617.43 58.1831 617.533 58.1326 617.624 58.0596C617.716 57.9866 617.794 57.8924 617.856 57.7824C617.917 57.6724 617.96 57.5488 617.982 57.4186C618.004 57.2884 618.005 57.1542 617.985 57.0236C617.964 56.893 617.923 56.7687 617.863 56.6576C617.803 56.5465 617.725 56.4508 617.635 56.3761C617.544 56.3015 617.442 56.2491 617.335 56.2222C617.228 56.1953 617.118 56.1943 617.01 56.2192L607.537 58.4182C607.32 58.4686 607.128 58.6217 607.004 58.8438C606.88 59.0659 606.834 59.3388 606.875 59.6026C606.917 59.8663 607.043 60.0992 607.225 60.2501C607.408 60.4009 607.633 60.4574 607.85 60.407L609.021 60.1402C608.913 60.1651 608.811 60.2156 608.719 60.2886C608.628 60.3616 608.549 60.4558 608.488 60.5658C608.426 60.6758 608.383 60.7994 608.361 60.9296C608.339 61.0598 608.338 61.194 608.359 61.3246C608.379 61.4551 608.421 61.5795 608.481 61.6906C608.541 61.8017 608.618 61.8974 608.709 61.9721C608.799 62.0467 608.901 62.0991 609.008 62.126C609.115 62.1529 609.226 62.1539 609.333 62.129L607.663 62.4604C607.446 62.5108 607.255 62.6639 607.131 62.886C607.007 63.1081 606.96 63.3811 607.002 63.6448C607.043 63.9085 607.169 64.1414 607.352 64.2923C607.535 64.4431 607.759 64.4996 607.976 64.4492L617.456 62.2745C617.563 62.2495 617.666 62.1991 617.757 62.1261C617.849 62.0531 617.927 61.9589 617.989 61.8489C618.05 61.7389 618.093 61.6153 618.115 61.4851C618.138 61.3549 618.138 61.2207 618.118 61.0901C618.097 60.9595 618.056 60.8351 617.996 60.724C617.936 60.6129 617.858 60.5173 617.768 60.4426C617.677 60.3679 617.575 60.3156 617.468 60.2887C617.361 60.2618 617.251 60.2608 617.143 60.2857L618.78 59.9057C618.887 59.8808 618.99 59.8304 619.081 59.7574C619.172 59.6843 619.251 59.5901 619.313 59.4802C619.374 59.3702 619.417 59.2466 619.439 59.1164C619.461 58.9862 619.462 58.852 619.442 58.7214C619.421 58.5908 619.38 58.4664 619.32 58.3553C619.259 58.2442 619.182 58.1486 619.091 58.0739C619.001 57.9992 618.899 57.9469 618.792 57.92C618.685 57.893 618.575 57.892 618.467 57.917L618.494 57.9412Z" fill="#252223"/>
<path id="Vector_116" opacity="0.3" d="M493.51 93.6594C498.301 92.5594 501.451 86.948 500.546 81.1261C499.64 75.3041 495.023 71.4763 490.232 72.5764C485.442 73.6765 482.292 79.2878 483.197 85.1098C484.102 90.9317 488.72 94.7595 493.51 93.6594Z" fill="#6C63FF"/>
<path id="Vector_117" opacity="0.05" d="M544.545 138.608C544.545 138.608 548.983 143.37 551.051 147.598C553.12 151.826 552.462 153.257 552.462 153.257" fill="black"/>
</g>
</g>
</g>
<defs>
<linearGradient id="paint0_linear" x1="571.755" y1="191.768" x2="551.311" y2="102.735" gradientUnits="userSpaceOnUse">
<stop stop-color="#808080" stop-opacity="0.25"/>
<stop offset="0.54" stop-color="#808080" stop-opacity="0.12"/>
<stop offset="1" stop-color="#808080" stop-opacity="0.1"/>
</linearGradient>
<linearGradient id="paint1_linear" x1="39947.6" y1="25105.6" x2="39947.6" y2="18577.1" gradientUnits="userSpaceOnUse">
<stop stop-color="#808080" stop-opacity="0.25"/>
<stop offset="0.54" stop-color="#808080" stop-opacity="0.12"/>
<stop offset="1" stop-color="#808080" stop-opacity="0.1"/>
</linearGradient>
</defs>
</svg>
