<?xml version="1.0" standalone="no"?><svg xmlns="http://www.w3.org/2000/svg" viewBox="0 0 1440 320"><path fill="#0099ff" fill-opacity="1" d="M0,192L24,202.7C48,213,96,235,144,240C192,245,240,235,288,224C336,213,384,203,432,202.7C480,203,528,213,576,197.3C624,181,672,139,720,106.7C768,75,816,53,864,69.3C912,85,960,139,1008,176C1056,213,1104,235,1152,250.7C1200,267,1248,277,1296,240C1344,203,1392,117,1416,74.7L1440,32L1440,320L1416,320C1392,320,1344,320,1296,320C1248,320,1200,320,1152,320C1104,320,1056,320,1008,320C960,320,912,320,864,320C816,320,768,320,720,320C672,320,624,320,576,320C528,320,480,320,432,320C384,320,336,320,288,320C240,320,192,320,144,320C96,320,48,320,24,320L0,320Z"></path></svg>